<svg xmlns="http://www.w3.org/2000/svg" width="43" height="63" viewBox="0 0 43 63" fill="none">
  <g opacity="0.1">
    <path d="M-15 38.0633V24.938C-15 23.7141 -14.9174 22.498 -14.7546 21.2896C-14.5917 20.0787 -14.3486 18.8883 -14.0253 17.7184C-13.7019 16.5486 -13.3031 15.4096 -12.8264 14.3041C-12.3496 13.1985 -11.8021 12.1366 -11.1837 11.1185C-10.5654 10.1004 -9.88332 9.13879 -9.13517 8.2312C-8.38702 7.32362 -7.58223 6.48031 -6.7208 5.70127C-5.85937 4.92224 -4.95073 4.21777 -3.99489 3.58529C-3.03906 2.95538 -2.04546 2.4026 -1.01646 1.9321C0.0125408 1.45902 1.06986 1.07336 2.15078 0.769975C3.23407 0.469161 4.32915 0.255762 5.44075 0.12978C6.54999 0.0063689 7.66396 -0.0296258 8.77792 0.0243663C9.89424 0.0783592 10.9988 0.222339 12.0962 0.453734C13.1913 0.68513 14.2675 1.00394 15.3201 1.41017C16.3727 1.8164 17.3946 2.3049 18.3811 2.87311C19.37 3.44388 20.314 4.08922 21.2156 4.81169C22.1148 5.53416 22.9644 6.32347 23.7574 7.18221C23.8613 7.30562 23.9391 7.44703 23.9934 7.60386C24.0477 7.7607 24.0737 7.92267 24.0713 8.09236C24.0666 8.25948 24.0359 8.41889 23.9769 8.57572C23.9179 8.72999 23.8353 8.86625 23.7267 8.98709C23.6205 9.10536 23.4954 9.20049 23.3562 9.26734C23.2146 9.33419 23.0683 9.37275 22.9149 9.3779C22.7615 9.38304 22.6128 9.35733 22.4688 9.30334C22.3248 9.24677 22.195 9.16193 22.0818 9.05137C21.369 8.28262 20.6114 7.57558 19.8043 6.92767C18.9995 6.28234 18.1546 5.70385 17.2695 5.1922C16.3869 4.68313 15.4735 4.24605 14.5295 3.88353C13.5878 3.52101 12.6249 3.23563 11.6454 3.02737C10.6636 2.81911 9.67476 2.69056 8.67644 2.64171C7.67812 2.59286 6.68216 2.62371 5.68856 2.73684C4.69496 2.84739 3.71316 3.03765 2.74553 3.30761C1.77553 3.57758 0.831492 3.92467 -0.0913029 4.34632C-1.01174 4.76798 -1.90149 5.26162 -2.75585 5.82726C-3.61256 6.39289 -4.42443 7.02537 -5.19618 7.72213C-5.96557 8.41632 -6.68776 9.17221 -7.35566 9.98467C-8.02593 10.7971 -8.63719 11.6584 -9.18946 12.5686C-9.74408 13.4813 -10.2326 14.43 -10.6598 15.4199C-11.0846 16.4098 -11.4433 17.4305 -11.7313 18.4769C-12.0216 19.5233 -12.2387 20.5903 -12.385 21.6727C-12.5313 22.7551 -12.6021 23.8427 -12.6021 24.938V38.0633C-12.6021 38.2355 -12.6328 38.4026 -12.6942 38.5646C-12.7556 38.7266 -12.8405 38.868 -12.9538 38.9914C-13.0671 39.1123 -13.1969 39.2074 -13.3432 39.2742C-13.4895 39.3411 -13.6429 39.3745 -13.8011 39.3745C-13.9592 39.3745 -14.1126 39.3411 -14.2589 39.2742C-14.4076 39.2074 -14.5351 39.1123 -14.6483 38.9914C-14.7616 38.868 -14.8466 38.7266 -14.908 38.5646C-14.9693 38.4026 -15 38.2355 -15 38.0633ZM-12.2269 47.0388C-12.3709 47.1134 -12.4936 47.2162 -12.5998 47.3448C-12.706 47.4759 -12.7862 47.6225 -12.8405 47.7844C-12.8924 47.949 -12.916 48.1187 -12.9066 48.2909C-12.8995 48.4658 -12.8594 48.6303 -12.7933 48.7872C-12.3284 49.8439 -11.7997 50.8594 -11.2073 51.8339C-10.6126 52.8083 -9.96121 53.7339 -9.24846 54.6081C-8.53807 55.4822 -7.7734 56.2998 -6.95681 57.0557C-6.14022 57.8142 -5.28114 58.5058 -4.37723 59.1306C-3.47095 59.7553 -2.53164 60.3081 -1.55692 60.7889C-0.579842 61.2697 0.420836 61.6733 1.44748 62.0024C2.47412 62.329 3.51728 62.5758 4.57696 62.7429C5.63664 62.91 6.70104 62.9949 7.77016 63C7.92829 63 8.08169 62.9666 8.22802 62.8997C8.37434 62.8329 8.50415 62.7378 8.61743 62.6143C8.72836 62.4909 8.81568 62.3495 8.87704 62.1901C8.93841 62.0281 8.96909 61.861 8.96909 61.6862C8.96909 61.5139 8.93841 61.3442 8.87704 61.1848C8.81568 61.0229 8.72836 60.8814 8.61743 60.758C8.50415 60.6346 8.37434 60.5421 8.22802 60.4752C8.08169 60.4084 7.92829 60.3749 7.77016 60.3749C6.81196 60.3724 5.86085 60.2952 4.91209 60.1461C3.96569 59.997 3.03346 59.7759 2.11302 59.4828C1.19495 59.1897 0.298112 58.8272 -0.575122 58.3978C-1.44836 57.9684 -2.28855 57.4722 -3.09806 56.9117C-3.90757 56.3538 -4.67696 55.7342 -5.40859 55.058C-6.13786 54.3792 -6.82228 53.649 -7.45715 52.8674C-8.09437 52.0833 -8.67968 51.258 -9.2107 50.3838C-9.73936 49.5122 -10.2137 48.6046 -10.6268 47.6585C-10.6952 47.5016 -10.7896 47.3654 -10.9076 47.2497C-11.0256 47.1314 -11.1601 47.044 -11.3088 46.9874C-11.4599 46.9283 -11.6133 46.9051 -11.7738 46.9129C-11.9319 46.9231 -12.0829 46.9643 -12.2269 47.0388ZM29.3414 30.746C29.4995 30.746 29.6529 30.7126 29.7993 30.6457C29.9456 30.5789 30.0754 30.4863 30.1887 30.3629C30.2996 30.2395 30.3869 30.0981 30.4483 29.9361C30.5096 29.7767 30.538 29.607 30.538 29.4348V24.938C30.5427 22.0841 30.1084 19.3125 29.2399 16.6206C29.1903 16.4535 29.1125 16.2992 29.0086 16.1655C28.9024 16.0292 28.7773 15.9238 28.631 15.8441C28.4847 15.7644 28.3313 15.7207 28.1708 15.7104C28.0079 15.6976 27.8498 15.7233 27.6964 15.7824C27.5454 15.8415 27.4085 15.9315 27.2881 16.0524C27.1678 16.1706 27.0757 16.3121 27.0073 16.474C26.9412 16.636 26.9034 16.8057 26.8987 16.9831C26.8963 17.1605 26.9223 17.3328 26.9813 17.4973C27.7578 19.9064 28.1448 22.3849 28.1425 24.938V29.4348C28.1425 29.607 28.1731 29.7767 28.2345 29.9361C28.2935 30.0981 28.3808 30.2395 28.4941 30.3629C28.605 30.4863 28.7349 30.5789 28.8812 30.6457C29.0299 30.7126 29.1809 30.746 29.3414 30.746ZM-6.30778 17.6207C-6.22518 17.4639 -6.17562 17.2942 -6.15674 17.1117C-6.13786 16.9291 -6.15438 16.7517 -6.20394 16.5769C-6.2535 16.402 -6.33375 16.2452 -6.44231 16.1089C-6.55087 15.9701 -6.68068 15.8621 -6.83172 15.7824C-6.98277 15.7027 -7.1409 15.6616 -7.30846 15.6564C-7.47603 15.6487 -7.63652 15.6796 -7.79228 15.749C-7.94569 15.8158 -8.08257 15.9135 -8.20058 16.0447C-8.31622 16.1758 -8.40591 16.3249 -8.46491 16.4946C-9.63079 19.1659 -10.2114 21.9787 -10.2067 24.938V38.0633C-10.2043 38.706 -10.176 39.3488 -10.117 39.9916C-10.0603 40.6317 -9.97301 41.2694 -9.85736 41.9019C-9.74172 42.5343 -9.60011 43.1591 -9.42782 43.7736C-9.25554 44.3906 -9.05729 44.9974 -8.83308 45.5939C-8.60651 46.1878 -8.35634 46.7714 -8.07785 47.3397C-7.79936 47.9079 -7.49727 48.4581 -7.17158 48.9954C-6.84352 49.5302 -6.49423 50.047 -6.11898 50.5458C-5.74608 51.0446 -5.35195 51.5202 -4.93657 51.9779C-4.51883 52.4329 -4.08458 52.8649 -3.62908 53.2737C-3.17358 53.6825 -2.70156 54.0681 -2.21303 54.4255C-1.72449 54.7829 -1.21943 55.1145 -0.700207 55.4179C-0.180986 55.7239 0.350034 55.999 0.892855 56.2458C1.43804 56.4926 1.9903 56.7086 2.55436 56.8963C3.11606 57.084 3.6872 57.2408 4.26307 57.3668C4.84129 57.4928 5.42187 57.5879 6.00717 57.6522C6.59484 57.7165 7.18014 57.7499 7.77016 57.7499C7.92829 57.7499 8.08169 57.7165 8.22802 57.6496C8.37434 57.5828 8.50415 57.4876 8.61743 57.3642C8.72836 57.2408 8.81568 57.0994 8.87704 56.94C8.93841 56.778 8.96909 56.6109 8.96909 56.4361C8.96909 56.2638 8.93841 56.0967 8.87704 55.9347C8.81568 55.7727 8.72836 55.6313 8.61743 55.5079C8.50415 55.3871 8.37434 55.292 8.22802 55.2251C8.08169 55.1583 7.92829 55.1248 7.77016 55.1248C7.26038 55.1248 6.7506 55.0966 6.24318 55.04C5.73576 54.986 5.2307 54.9037 4.73272 54.7932C4.23238 54.6826 3.73676 54.5489 3.25059 54.3844C2.76205 54.2224 2.28295 54.0347 1.81093 53.8213C1.33891 53.6053 0.878695 53.3662 0.430277 53.104C-0.0205002 52.8392 -0.457117 52.5538 -0.881934 52.2427C-1.30439 51.9316 -1.71505 51.5999 -2.10918 51.2451C-2.50332 50.8903 -2.88093 50.5149 -3.23967 50.1215C-3.60076 49.7256 -3.94297 49.3117 -4.2663 48.8797C-4.592 48.4478 -4.89409 48.0004 -5.1773 47.5376C-5.46051 47.0723 -5.72248 46.594 -5.96321 46.1004C-6.20394 45.6093 -6.42343 45.1054 -6.61932 44.5886C-6.81284 44.0718 -6.98513 43.5473 -7.13382 43.0126C-7.2825 42.4778 -7.40759 41.9379 -7.50671 41.3902C-7.60583 40.8426 -7.68136 40.2898 -7.73328 39.7344C-7.78284 39.1791 -7.8088 38.6212 -7.8088 38.0633V24.938C-7.81588 22.3746 -7.31554 19.9347 -6.30778 17.6207ZM24.548 26.2492C24.7062 26.2492 24.8596 26.2158 25.0059 26.1489C25.1522 26.0847 25.282 25.9895 25.3953 25.8661C25.5062 25.7427 25.5936 25.6013 25.6549 25.4393C25.7139 25.2799 25.7446 25.1128 25.7446 24.938C25.7446 24.2926 25.7163 23.6499 25.6573 23.0097C25.5983 22.3669 25.511 21.7293 25.3977 21.0994C25.282 20.4669 25.1381 19.8421 24.9681 19.2251C24.7959 18.608 24.5976 18.0012 24.371 17.4073C24.1468 16.8108 23.8943 16.2298 23.6182 15.6616C23.3397 15.0934 23.0376 14.5406 22.7095 14.0058C22.3838 13.4685 22.0322 12.9517 21.6593 12.4529C21.2864 11.9567 20.8899 11.4785 20.4745 11.0234C20.0592 10.5657 19.6225 10.1338 19.167 9.72499C18.7139 9.31619 18.2419 8.9331 17.751 8.57572C17.2624 8.21578 16.7574 7.88411 16.2405 7.58072C15.7213 7.27734 15.1903 7.00223 14.6451 6.75541C14.1023 6.50859 13.5477 6.29005 12.986 6.10236C12.4219 5.91467 11.8531 5.75784 11.2749 5.63186C10.699 5.50587 10.1161 5.41074 9.53079 5.34647C8.94549 5.28219 8.35782 5.25134 7.77016 5.25134C5.77352 5.24106 3.82881 5.59072 1.94073 6.30033C0.0503025 7.00738 -1.682 8.03323 -3.25619 9.38047C-3.38127 9.48588 -3.48275 9.61443 -3.56064 9.76613C-3.64088 9.91782 -3.69044 10.0798 -3.70932 10.2521C-3.7282 10.4269 -3.71876 10.5966 -3.67628 10.7637C-3.6338 10.9308 -3.563 11.0851 -3.46623 11.2213C-3.36947 11.3602 -3.25147 11.4707 -3.11222 11.5582C-2.97534 11.643 -2.82665 11.697 -2.66852 11.7201C-2.5104 11.7407 -2.35463 11.7278 -2.20123 11.6816C-2.04782 11.6353 -1.90857 11.5607 -1.78349 11.4527C-0.419355 10.2855 1.08166 9.39589 2.71721 8.78398C4.35511 8.1695 6.04021 7.86868 7.77016 7.8764C8.27994 7.8764 8.78736 7.90468 9.29714 7.95867C9.80456 8.01523 10.3073 8.09751 10.8076 8.20549C11.3079 8.31605 11.8012 8.45231 12.2897 8.61429C12.7783 8.77627 13.2574 8.96653 13.7294 9.17992C14.199 9.39332 14.6593 9.63243 15.11 9.89725C15.5585 10.1595 15.9974 10.4475 16.4199 10.756C16.8447 11.0671 17.253 11.4013 17.6471 11.7536C18.0413 12.1084 18.4189 12.4837 18.78 12.8797C19.1411 13.2731 19.4833 13.687 19.8066 14.1189C20.13 14.5509 20.4344 14.9982 20.7176 15.4636C21.0008 15.9264 21.2628 16.4072 21.5035 16.8983C21.7443 17.3919 21.9614 17.8958 22.1573 18.4126C22.3532 18.9268 22.5255 19.4513 22.6741 19.9861C22.8228 20.5209 22.9455 21.0634 23.047 21.611C23.1462 22.1587 23.2217 22.7089 23.2712 23.2668C23.3232 23.8221 23.3491 24.3801 23.3491 24.938C23.3491 25.1128 23.3798 25.2799 23.4388 25.4393C23.5002 25.6013 23.5875 25.7427 23.7008 25.8661C23.8117 25.9895 23.9415 26.0847 24.0878 26.1489C24.2342 26.2158 24.3876 26.2492 24.548 26.2492ZM-1.17222 44.6657C-1.26191 44.5218 -1.37283 44.4035 -1.505 44.3058C-1.63716 44.2107 -1.78113 44.1464 -1.93689 44.113C-2.09266 44.0795 -2.24843 44.0795 -2.40419 44.1155C-2.55996 44.149 -2.70392 44.2158 -2.83609 44.3135C-2.96825 44.4086 -3.07682 44.5321 -3.1665 44.676C-3.25383 44.82 -3.31283 44.9794 -3.34351 45.1491C-3.37419 45.3214 -3.37419 45.4911 -3.34115 45.6607C-3.31047 45.833 -3.25146 45.9898 -3.16178 46.1338C-2.77709 46.7586 -2.34755 47.3474 -1.87789 47.9001C-1.40823 48.4529 -0.903174 48.962 -0.360353 49.4274C0.182467 49.8927 0.75361 50.3092 1.35779 50.6743C1.95962 51.042 2.58268 51.3557 3.2317 51.6153C3.87837 51.875 4.5392 52.0781 5.21418 52.2247C5.89153 52.3712 6.5736 52.4586 7.26274 52.4895C7.94953 52.5178 8.63631 52.4895 9.32074 52.3995C10.0052 52.3121 10.6802 52.1655 11.3433 51.9624C11.5015 51.9187 11.6454 51.8442 11.7752 51.7387C11.905 51.6308 12.0112 51.5022 12.0915 51.3479C12.1741 51.1937 12.226 51.0291 12.2449 50.8517C12.2661 50.6769 12.2543 50.5021 12.2095 50.3298C12.167 50.1601 12.0938 50.0058 11.9924 49.867C11.8909 49.7282 11.7682 49.615 11.6242 49.5302C11.4826 49.4479 11.3292 49.3965 11.1687 49.3811C11.0058 49.3631 10.8477 49.3811 10.6943 49.4351C10.1515 49.6022 9.59923 49.723 9.03989 49.795C8.48055 49.867 7.91885 49.8901 7.35478 49.8644C6.79072 49.8413 6.23374 49.7693 5.68148 49.6485C5.12686 49.5302 4.5864 49.3631 4.05774 49.1497C3.52908 48.9363 3.01694 48.6817 2.52368 48.3809C2.03278 48.0801 1.56312 47.7407 1.11942 47.3602C0.675727 46.9797 0.262711 46.5632 -0.121984 46.1107C-0.506679 45.6607 -0.855972 45.1774 -1.17222 44.6657ZM19.7523 32.8131C19.9128 32.8131 20.0662 32.7797 20.2126 32.7129C20.3589 32.646 20.4887 32.5509 20.602 32.4275C20.7129 32.3041 20.8002 32.1627 20.8616 32.0033C20.9206 31.8413 20.9513 31.6742 20.9513 31.4993V24.938C20.9513 23.7553 20.8215 22.5906 20.5595 21.4439C20.2999 20.2972 19.9152 19.2019 19.4101 18.1581C18.9027 17.1142 18.2867 16.1526 17.5645 15.2733C16.8424 14.3966 16.0352 13.6253 15.1407 12.9645C15.0086 12.8668 14.8646 12.8026 14.7088 12.7666C14.5531 12.7331 14.3973 12.7331 14.2392 12.7666C14.0834 12.8 13.9394 12.8643 13.8073 12.9594C13.6751 13.0571 13.5642 13.1754 13.4745 13.3219C13.3872 13.4659 13.3258 13.6227 13.2951 13.7924C13.2621 13.9647 13.2621 14.1344 13.2928 14.3066C13.3235 14.4763 13.3825 14.6357 13.4698 14.7797C13.5571 14.9263 13.668 15.0471 13.8002 15.1448C14.5318 15.6847 15.1926 16.3146 15.785 17.032C16.3751 17.7519 16.8778 18.5386 17.2931 19.3922C17.7061 20.2458 18.02 21.1405 18.2348 22.079C18.4472 23.0174 18.5558 23.9713 18.5558 24.938V31.4993C18.5558 31.6742 18.5865 31.8413 18.6455 32.0033C18.7068 32.1627 18.7941 32.3041 18.9051 32.4275C19.0184 32.5509 19.1482 32.646 19.2945 32.7129C19.4408 32.7797 19.5942 32.8131 19.7523 32.8131ZM8.96909 11.8127C8.96909 11.6379 8.93841 11.4707 8.87704 11.3113C8.81568 11.1494 8.72836 11.008 8.61743 10.8845C8.50415 10.7611 8.37434 10.666 8.22802 10.5992C8.08169 10.5323 7.92829 10.5015 7.77016 10.5015C7.33826 10.5015 6.90637 10.5246 6.47919 10.5709C6.04965 10.6171 5.62248 10.6866 5.20002 10.7791C4.77521 10.8717 4.35747 10.9874 3.94445 11.1262C3.53144 11.2625 3.1255 11.4219 2.72665 11.6044C2.32779 11.7844 1.93838 11.9875 1.5584 12.2086C1.17843 12.4323 0.807892 12.6766 0.449158 12.9388C0.0904236 13.2011 -0.25651 13.4813 -0.589282 13.7821C-0.922055 14.0829 -1.24303 14.3992 -1.54748 14.7334C-1.85193 15.0677 -2.14222 15.4173 -2.41599 15.7824C-2.68976 16.1475 -2.94701 16.528 -3.18538 16.9214C-3.42611 17.3122 -3.64796 17.7184 -3.85093 18.1349C-4.05626 18.5515 -4.24034 18.9782 -4.40555 19.4153C-4.57076 19.8524 -4.71708 20.2972 -4.84217 20.7471C-4.96725 21.1996 -5.07346 21.6573 -5.15606 22.1227C-5.24102 22.5855 -5.30474 23.0534 -5.34723 23.5239C-5.38971 23.9944 -5.41095 24.4649 -5.41331 24.938V38.0633C-5.41331 38.2355 -5.38263 38.4026 -5.32127 38.5646C-5.2599 38.7266 -5.17494 38.868 -5.06166 38.9914C-4.94837 39.1123 -4.81857 39.2074 -4.67224 39.2742C-4.52591 39.3411 -4.37251 39.3745 -4.21438 39.3745C-4.05626 39.3745 -3.90285 39.3411 -3.75653 39.2742C-3.60784 39.2074 -3.47803 39.1123 -3.36711 38.9914C-3.25383 38.868 -3.16886 38.7266 -3.1075 38.5646C-3.04614 38.4026 -3.01546 38.2355 -3.01546 38.0633V24.938C-3.01546 24.5497 -2.99658 24.1641 -2.96353 23.781C-2.92813 23.3953 -2.87621 23.0122 -2.80541 22.6343C-2.73697 22.2538 -2.652 21.881 -2.54816 21.5107C-2.44667 21.1405 -2.32631 20.7754 -2.19178 20.418C-2.05726 20.0632 -1.90621 19.7136 -1.73865 19.3716C-1.57108 19.0297 -1.39171 18.7006 -1.19347 18.3792C-0.997578 18.0578 -0.78753 17.7467 -0.563321 17.4485C-0.339112 17.1477 -0.103104 16.8623 0.147066 16.5897C0.397236 16.3146 0.656846 16.0549 0.930616 15.8107C1.20439 15.5639 1.4876 15.3351 1.78025 15.1191C2.0729 14.9057 2.37735 14.7051 2.68888 14.5226C2.99806 14.3426 3.31903 14.1755 3.64472 14.029C3.97041 13.8798 4.30319 13.7487 4.64068 13.6356C4.97817 13.525 5.32039 13.4299 5.66732 13.3553C6.01189 13.2782 6.36119 13.2216 6.71284 13.1831C7.0645 13.1445 7.41615 13.1265 7.77016 13.1265C7.92829 13.1265 8.08169 13.0931 8.22802 13.0262C8.37434 12.9594 8.50415 12.8643 8.61743 12.7408C8.72836 12.6174 8.81568 12.476 8.87704 12.3141C8.93841 12.1546 8.96909 11.9875 8.96909 11.8127ZM7.77016 15.749C6.80016 15.7438 5.85849 15.9187 4.94277 16.2761C4.80117 16.3378 4.67372 16.4278 4.56044 16.546C4.44951 16.6643 4.36219 16.8006 4.29847 16.9548C4.23474 17.1091 4.2017 17.2711 4.19462 17.4408C4.18754 17.6104 4.21114 17.775 4.26307 17.9344C4.31499 18.0938 4.39287 18.2378 4.49435 18.3638C4.5982 18.4897 4.71856 18.5926 4.85781 18.6672C4.99469 18.7417 5.14102 18.788 5.29679 18.8008C5.45019 18.8137 5.60124 18.7957 5.74992 18.7443C5.97413 18.6569 6.20542 18.5823 6.43671 18.5257C6.67036 18.4666 6.90637 18.4229 7.14474 18.3972C7.38311 18.3689 7.62383 18.3586 7.8622 18.3612C8.10293 18.3663 8.3413 18.3843 8.57731 18.4203C8.81568 18.4563 9.04933 18.5077 9.28062 18.572C9.51427 18.6389 9.74084 18.7211 9.96269 18.8163C10.1869 18.914 10.404 19.022 10.6141 19.1479C10.8265 19.2713 11.0294 19.4102 11.2253 19.5619C11.4212 19.7136 11.6077 19.8755 11.7847 20.053C11.9617 20.2278 12.1292 20.4155 12.2874 20.6134C12.4455 20.8114 12.5918 21.0171 12.7264 21.2356C12.8609 21.4516 12.9836 21.6779 13.0922 21.9093C13.2031 22.1432 13.2999 22.3823 13.3825 22.6292C13.4674 22.8734 13.5382 23.1254 13.5925 23.3799C13.6491 23.6344 13.6916 23.8916 13.72 24.1538C13.7483 24.4135 13.7624 24.6757 13.7624 24.938C13.7624 25.1128 13.7931 25.2799 13.8521 25.4393C13.9135 25.6013 14.0008 25.7427 14.1117 25.8661C14.225 25.9895 14.3548 26.0847 14.5011 26.1489C14.6475 26.2158 14.8009 26.2492 14.959 26.2492C15.1195 26.2492 15.2729 26.2158 15.4192 26.1489C15.5655 26.0847 15.6953 25.9895 15.8063 25.8661C15.9196 25.7427 16.0069 25.6013 16.0682 25.4393C16.1272 25.2799 16.1579 25.1128 16.1579 24.938C16.1579 24.3338 16.1036 23.7373 15.9974 23.1459C15.8889 22.5546 15.7307 21.9787 15.5207 21.4208C15.3083 20.8654 15.051 20.3358 14.7442 19.8344C14.4374 19.3305 14.0905 18.8677 13.7011 18.4409C13.3117 18.0141 12.8892 17.6336 12.429 17.2993C11.9711 16.9625 11.4897 16.6797 10.9799 16.4483C10.4701 16.2195 9.94617 16.0447 9.4057 15.9264C8.86524 15.8081 8.32006 15.749 7.77016 15.749ZM2.27587 19.6879C2.14134 19.5953 1.99502 19.5362 1.83689 19.5105C1.68113 19.4822 1.52536 19.4873 1.36959 19.5285C1.21619 19.5696 1.07458 19.6416 0.944777 19.7419C0.817331 19.8447 0.711128 19.9707 0.626164 20.1172C-0.204588 21.5956 -0.619964 23.2025 -0.619964 24.938V38.0633C-0.619964 38.2355 -0.589283 38.4026 -0.52792 38.5646C-0.466558 38.7266 -0.379234 38.868 -0.26831 38.9914C-0.155025 39.1123 -0.0252199 39.2074 0.121105 39.2742C0.267431 39.3411 0.420836 39.3745 0.578962 39.3745C0.739449 39.3745 0.890495 39.3411 1.03682 39.2742C1.18551 39.2074 1.31531 39.1123 1.42624 38.9914C1.53952 38.868 1.62684 38.7266 1.68585 38.5646C1.74721 38.4026 1.77789 38.2355 1.77789 38.0633V24.938C1.77553 23.6987 2.0729 22.552 2.66764 21.4953C2.75025 21.3488 2.80453 21.1868 2.83049 21.0145C2.85645 20.8448 2.85173 20.6726 2.81397 20.5029C2.77857 20.3332 2.71249 20.1789 2.62044 20.0375C2.52604 19.8961 2.41275 19.7778 2.27587 19.6879ZM16.1579 31.4993C16.1579 31.3271 16.1272 31.1574 16.0682 30.998C16.0069 30.836 15.9196 30.6946 15.8063 30.5712C15.6953 30.4478 15.5655 30.3552 15.4192 30.2884C15.2729 30.2215 15.1195 30.1881 14.959 30.1881C14.8009 30.1881 14.6475 30.2215 14.5011 30.2884C14.3548 30.3552 14.225 30.4478 14.1117 30.5712C14.0008 30.6946 13.9135 30.836 13.8521 30.998C13.7931 31.1574 13.7624 31.3271 13.7624 31.4993V38.0633C13.7624 38.3435 13.7436 38.6263 13.7105 38.9066C13.6775 39.1868 13.6279 39.4619 13.5618 39.7344C13.4957 40.0096 13.4131 40.2769 13.3164 40.5366C13.2196 40.7989 13.1063 41.0508 12.9789 41.2977C12.8514 41.5419 12.7098 41.7784 12.5564 42.0047C12.4007 42.2309 12.2331 42.4443 12.0514 42.6449C11.872 42.848 11.6808 43.0357 11.4779 43.2105C11.2749 43.3854 11.0648 43.5448 10.843 43.6887C10.6212 43.8353 10.3922 43.9638 10.1562 44.077C9.91784 44.1875 9.67711 44.2827 9.42931 44.3624C9.1815 44.4395 8.92897 44.5012 8.67408 44.5423C8.41919 44.586 8.1643 44.6092 7.90705 44.6169C7.64744 44.622 7.39019 44.6118 7.1353 44.5809C6.87805 44.5526 6.62552 44.5038 6.37299 44.4369C6.12282 44.3726 5.87737 44.2878 5.63664 44.1875C5.39591 44.0873 5.16226 43.9716 4.93333 43.8379C4.79409 43.7556 4.6454 43.7042 4.48727 43.6887C4.32915 43.6707 4.17338 43.6862 4.02234 43.7376C3.86893 43.7864 3.73204 43.8687 3.60932 43.9767C3.4866 44.0873 3.38747 44.2184 3.31195 44.3726C3.23643 44.5243 3.19158 44.6889 3.17506 44.8611C3.15854 45.036 3.1727 45.2057 3.21991 45.3702C3.26475 45.5373 3.33791 45.689 3.43703 45.8227C3.53852 45.959 3.65888 46.067 3.79813 46.1493C4.11674 46.3369 4.44479 46.5015 4.78229 46.6429C5.11978 46.7817 5.46435 46.9 5.81364 46.9926C6.1653 47.0825 6.52167 47.152 6.88041 47.1931C7.23914 47.2342 7.59787 47.2522 7.95897 47.242C8.32006 47.2342 8.6788 47.1982 9.03753 47.1391C9.3939 47.08 9.74556 46.9951 10.0925 46.8846C10.4394 46.7766 10.7793 46.6429 11.1097 46.4835C11.4425 46.3267 11.7611 46.1467 12.0726 45.9436C12.3818 45.7405 12.6792 45.5168 12.9624 45.2725C13.2456 45.0283 13.5146 44.7634 13.7672 44.4806C14.0197 44.1978 14.2533 43.8996 14.4705 43.5833C14.6876 43.2671 14.8858 42.938 15.0652 42.5935C15.2422 42.2489 15.4003 41.8941 15.5372 41.529C15.6741 41.1614 15.7874 40.7886 15.8794 40.4055C15.9715 40.0224 16.0423 39.6367 16.0871 39.2434C16.1343 38.8526 16.1579 38.4566 16.1579 38.0633V31.4993ZM6.57123 39.3745C6.57123 39.5493 6.60192 39.7164 6.66328 39.8759C6.72228 40.0378 6.8096 40.1792 6.92289 40.3027C7.03381 40.4261 7.16362 40.5212 7.30994 40.588C7.45863 40.6549 7.60967 40.6883 7.77016 40.6883C7.92829 40.6883 8.08169 40.6549 8.22802 40.588C8.37434 40.5212 8.50415 40.4261 8.61743 40.3027C8.72836 40.1792 8.81568 40.0378 8.87704 39.8759C8.93841 39.7164 8.96909 39.5493 8.96909 39.3745V33.7464C8.96909 33.5716 8.93841 33.4045 8.87704 33.2451C8.81568 33.0831 8.72836 32.9417 8.61743 32.8183C8.50415 32.6949 8.37434 32.5997 8.22802 32.5355C8.08169 32.4686 7.92829 32.4352 7.77016 32.4352C7.60967 32.4352 7.45863 32.4686 7.30994 32.5355C7.16362 32.5997 7.03381 32.6949 6.92289 32.8183C6.8096 32.9417 6.72228 33.0831 6.66328 33.2451C6.60192 33.4045 6.57123 33.5716 6.57123 33.7464V39.3745ZM7.77016 29.8101C7.92829 29.8101 8.08169 29.7767 8.22802 29.7099C8.37434 29.643 8.50415 29.5479 8.61743 29.4245C8.72836 29.3011 8.81568 29.1597 8.87704 29.0003C8.93841 28.8383 8.96909 28.6712 8.96909 28.4963V23.6242C8.96909 23.4519 8.93841 23.2848 8.87704 23.1228C8.81568 22.9608 8.72836 22.8194 8.61743 22.696C8.50415 22.5752 8.37434 22.48 8.22802 22.4132C8.08169 22.3463 7.92829 22.3129 7.77016 22.3129C7.60967 22.3129 7.45863 22.3463 7.30994 22.4132C7.16362 22.48 7.03381 22.5752 6.92289 22.696C6.8096 22.8194 6.72228 22.9608 6.66328 23.1228C6.60192 23.2848 6.57123 23.4519 6.57123 23.6242V28.4963C6.57123 28.6712 6.60192 28.8383 6.66328 29.0003C6.72228 29.1597 6.8096 29.3011 6.92289 29.4245C7.03381 29.5479 7.16362 29.643 7.30994 29.7099C7.45863 29.7767 7.60967 29.8101 7.77016 29.8101ZM42.5225 46.7946V59.5162C42.5225 59.745 42.5013 59.9713 42.4611 60.195C42.421 60.4187 42.3597 60.6372 42.2794 60.848C42.1992 61.0588 42.1024 61.2594 41.9868 61.4496C41.8688 61.6399 41.739 61.8173 41.5903 61.9793C41.4439 62.1413 41.2811 62.2852 41.1088 62.4112C40.9342 62.5398 40.7524 62.6452 40.5589 62.7326C40.3654 62.82 40.1671 62.8869 39.9618 62.9332C39.7588 62.9769 39.5512 63 39.3411 63H19.3393C19.1293 63 18.924 62.9769 18.7186 62.9332C18.5133 62.8869 18.315 62.82 18.1215 62.7326C17.9304 62.6452 17.7463 62.5398 17.5716 62.4112C17.3993 62.2852 17.2388 62.1413 17.0902 61.9793C16.9438 61.8173 16.8117 61.6399 16.696 61.4496C16.578 61.2594 16.4813 61.0588 16.401 60.848C16.3208 60.6372 16.2618 60.4187 16.2193 60.195C16.1792 59.9713 16.1579 59.745 16.1579 59.5162V46.7946C16.1579 46.5658 16.1792 46.3395 16.2193 46.1158C16.2618 45.8921 16.3208 45.6736 16.401 45.4628C16.4813 45.2519 16.578 45.0514 16.696 44.8611C16.8117 44.6709 16.9438 44.4961 17.0902 44.3341C17.2388 44.1721 17.3993 44.0281 17.5716 43.8996C17.7463 43.7736 17.9304 43.6656 18.1215 43.5782C18.315 43.4908 18.5133 43.4239 18.7186 43.3802C18.924 43.3339 19.1293 43.3134 19.3393 43.3134H22.5302V40.8143C22.5302 40.3232 22.575 39.8399 22.6623 39.3591C22.7497 38.8783 22.8795 38.4129 23.0494 37.9604C23.2217 37.5079 23.4294 37.076 23.6795 36.6697C23.9273 36.2635 24.2106 35.8856 24.5268 35.541C24.8407 35.194 25.1853 34.8854 25.5582 34.6129C25.9287 34.3404 26.3228 34.1115 26.7359 33.9238C27.1489 33.7362 27.5737 33.5947 28.0127 33.4996C28.4516 33.4045 28.893 33.3556 29.3414 33.3556C29.7875 33.3556 30.2312 33.4045 30.6678 33.4996C31.1067 33.5947 31.5339 33.7362 31.9469 33.9238C32.36 34.1115 32.7517 34.3404 33.1246 34.6129C33.4952 34.8854 33.8397 35.194 34.156 35.541C34.4722 35.8856 34.7531 36.2635 35.0033 36.6697C35.2511 37.076 35.4611 37.5079 35.631 37.9604C35.8033 38.4129 35.9308 38.8783 36.0181 39.3591C36.1054 39.8399 36.1503 40.3232 36.1503 40.8143V43.3134H39.3411C39.5512 43.3134 39.7588 43.3339 39.9618 43.3802C40.1671 43.4239 40.3654 43.4908 40.5589 43.5782C40.7524 43.6656 40.9342 43.7736 41.1088 43.8996C41.2811 44.0281 41.4439 44.1721 41.5903 44.3341C41.739 44.4961 41.8688 44.6709 41.9868 44.8611C42.1024 45.0514 42.1992 45.2519 42.2794 45.4628C42.3597 45.6736 42.421 45.8921 42.4611 46.1158C42.5013 46.3395 42.5225 46.5658 42.5225 46.7946ZM24.928 43.3134H33.7524V40.8143C33.7524 40.4955 33.7241 40.1818 33.6674 39.8707C33.6108 39.5596 33.5258 39.2588 33.4149 38.9657C33.304 38.6726 33.1695 38.3949 33.009 38.1301C32.8461 37.8679 32.6644 37.6236 32.4591 37.3999C32.2537 37.1762 32.0319 36.9757 31.7912 36.7983C31.5504 36.6235 31.2956 36.4743 31.0289 36.3535C30.7598 36.2327 30.4837 36.1401 30.2005 36.0784C29.9173 36.0167 29.6293 35.9858 29.3414 35.9858C29.0511 35.9858 28.7632 36.0167 28.48 36.0784C28.1968 36.1401 27.9206 36.2327 27.6539 36.3535C27.3849 36.4743 27.1324 36.6235 26.8893 36.7983C26.6485 36.9757 26.4267 37.1762 26.2214 37.3999C26.016 37.6236 25.8343 37.8679 25.6738 38.1301C25.5133 38.3949 25.3764 38.6726 25.2655 38.9657C25.1546 39.2588 25.0696 39.5596 25.013 39.8707C24.9563 40.1818 24.928 40.4955 24.928 40.8143V43.3134ZM40.127 46.7946C40.1247 46.6815 40.1058 46.5735 40.0657 46.4681C40.0255 46.3626 39.9689 46.2701 39.8957 46.1904C39.8226 46.1081 39.7376 46.0464 39.6408 46.0027C39.5464 45.959 39.4449 45.9384 39.3411 45.9384H19.3393C19.2355 45.9384 19.134 45.959 19.0396 46.0027C18.9428 46.0464 18.8579 46.1081 18.7847 46.1904C18.7115 46.2701 18.6549 46.3626 18.6148 46.4681C18.5747 46.5735 18.5558 46.6815 18.5558 46.7946V59.5162C18.5558 59.6293 18.5747 59.7399 18.6148 59.8453C18.6549 59.9482 18.7115 60.0407 18.7847 60.123C18.8579 60.2027 18.9428 60.2644 19.0396 60.3081C19.134 60.3518 19.2355 60.3749 19.3393 60.3749H39.3411C39.4449 60.3749 39.5464 60.3518 39.6408 60.3081C39.7376 60.2644 39.8226 60.2027 39.8957 60.123C39.9689 60.0407 40.0255 59.9482 40.0657 59.8453C40.1058 59.7399 40.1247 59.6293 40.127 59.5162V46.7946ZM29.3414 50.5303C29.1833 50.5303 29.0275 50.5483 28.8741 50.5818C28.7183 50.6152 28.5696 50.664 28.4233 50.7309C28.277 50.7977 28.1401 50.8774 28.0079 50.9726C27.8781 51.0677 27.7578 51.1782 27.6469 51.2991C27.5336 51.4225 27.4344 51.5536 27.3471 51.6976C27.2598 51.8416 27.1866 51.9933 27.1253 52.1501C27.0663 52.3095 27.0214 52.4741 26.9907 52.6438C26.9601 52.8134 26.9435 52.9831 26.9435 53.1554C26.9435 53.3277 26.9601 53.4999 26.9907 53.667C27.0214 53.8367 27.0663 54.0013 27.1253 54.1607C27.1866 54.3201 27.2598 54.4718 27.3471 54.6132C27.4344 54.7572 27.5336 54.8909 27.6469 55.0117C27.7578 55.1325 27.8781 55.2431 28.0079 55.3382C28.1401 55.4334 28.277 55.5156 28.4233 55.5799C28.5696 55.6468 28.7183 55.6956 28.8741 55.729C29.0275 55.765 29.1833 55.7805 29.3414 55.7805C29.4972 55.7805 29.6529 55.765 29.8087 55.729C29.9621 55.6956 30.1131 55.6468 30.2571 55.5799C30.4034 55.5156 30.5403 55.4334 30.6725 55.3382C30.8023 55.2431 30.925 55.1325 31.0359 55.0117C31.1469 54.8909 31.246 54.7572 31.3333 54.6132C31.4206 54.4718 31.4938 54.3201 31.5552 54.1607C31.6142 54.0013 31.6614 53.8367 31.692 53.667C31.7227 53.4999 31.7369 53.3277 31.7369 53.1554C31.7369 52.9831 31.7227 52.8134 31.692 52.6438C31.6614 52.4741 31.6142 52.3095 31.5552 52.1501C31.4938 51.9933 31.4206 51.8416 31.3333 51.6976C31.246 51.5536 31.1469 51.4225 31.0359 51.2991C30.925 51.1782 30.8023 51.0677 30.6725 50.9726C30.5403 50.8774 30.4034 50.7977 30.2571 50.7309C30.1131 50.664 29.9621 50.6152 29.8087 50.5818C29.6529 50.5483 29.4972 50.5303 29.3414 50.5303Z" fill="url(#paint0_linear_6838_3163)"/>
  </g>
  <defs>
    <linearGradient id="paint0_linear_6838_3163" x1="13.7613" y1="0" x2="13.7613" y2="63" gradientUnits="userSpaceOnUse">
      <stop stop-color="#1953FF"/>
      <stop offset="1" stop-opacity="0.23"/>
    </linearGradient>
  </defs>
</svg>