<svg width="38" height="51" viewBox="0 0 38 51" fill="none" xmlns="http://www.w3.org/2000/svg">
<g opacity="0.1">
<path d="M-9 30.8131V20.1879C-9 19.1972 -8.93313 18.2127 -8.8013 17.2345C-8.66947 16.2542 -8.47269 15.2905 -8.21094 14.3435C-7.9492 13.3965 -7.62631 12.4744 -7.24038 11.5795C-6.85445 10.6845 -6.4112 9.82491 -5.91064 9.0007C-5.41008 8.17649 -4.85793 7.39807 -4.25228 6.66335C-3.64664 5.92864 -2.99514 5.24596 -2.29779 4.61532C-1.60044 3.98467 -0.864878 3.41439 -0.0911055 2.90238C0.682668 2.39245 1.48701 1.94496 2.32001 1.56408C3.15301 1.18111 4.00894 0.86891 4.88397 0.623313C5.76091 0.379797 6.6474 0.207045 7.54727 0.10506C8.44523 0.00515578 9.34701 -0.0239828 10.2488 0.0197251C11.1525 0.0634336 12.0466 0.179988 12.935 0.367308C13.8215 0.554629 14.6927 0.812715 15.5448 1.14157C16.3969 1.47042 17.2242 1.86587 18.0228 2.32585C18.8233 2.7879 19.5876 3.31032 20.3174 3.89518C21.0453 4.48003 21.7331 5.119 22.3751 5.81417C22.4591 5.91407 22.5222 6.02855 22.5661 6.15551C22.6101 6.28247 22.6311 6.41359 22.6292 6.55096C22.6253 6.68625 22.6005 6.81529 22.5527 6.94225C22.505 7.06713 22.4381 7.17744 22.3502 7.27527C22.2642 7.37101 22.163 7.44802 22.0503 7.50213C21.9356 7.55625 21.8172 7.58747 21.693 7.59163C21.5688 7.59579 21.4484 7.57498 21.3319 7.53127C21.2153 7.48548 21.1103 7.4168 21.0186 7.3273C20.4416 6.70498 19.8283 6.13261 19.1749 5.60812C18.5234 5.0857 17.8394 4.6174 17.123 4.20321C16.4084 3.79111 15.669 3.43728 14.9048 3.14381C14.1425 2.85034 13.363 2.61932 12.5701 2.45073C11.7753 2.28214 10.9748 2.17807 10.1666 2.13853C9.35848 2.09898 8.55222 2.12396 7.74788 2.21554C6.94354 2.30503 6.14875 2.45905 5.36543 2.67759C4.58019 2.89613 3.81597 3.17711 3.06894 3.51845C2.32383 3.85979 1.60355 4.25941 0.911934 4.7173C0.218404 5.1752 -0.438825 5.68721 -1.06358 6.25125C-1.68641 6.81321 -2.27104 7.42512 -2.81173 8.08283C-3.35432 8.74053 -3.84916 9.43778 -4.29623 10.1746C-4.7452 10.9134 -5.14069 11.6815 -5.4865 12.4828C-5.8304 13.2841 -6.1208 14.1104 -6.35389 14.9575C-6.58889 15.8046 -6.76466 16.6683 -6.88311 17.5446C-7.00156 18.4208 -7.05888 19.3012 -7.05888 20.1879V30.8131C-7.05888 30.9526 -7.08372 31.0878 -7.13339 31.219C-7.18307 31.3501 -7.25185 31.4646 -7.34355 31.5645C-7.43526 31.6623 -7.54034 31.7393 -7.65879 31.7934C-7.77725 31.8475 -7.90143 31.8746 -8.02944 31.8746C-8.15745 31.8746 -8.28163 31.8475 -8.40009 31.7934C-8.52045 31.7393 -8.62362 31.6623 -8.71533 31.5645C-8.80703 31.4646 -8.87581 31.3501 -8.92549 31.219C-8.97516 31.0878 -9 30.9526 -9 30.8131ZM-6.7551 38.0791C-6.87165 38.1394 -6.971 38.2227 -7.05697 38.3267C-7.14295 38.4329 -7.2079 38.5515 -7.25185 38.6826C-7.29388 38.8159 -7.31298 38.9532 -7.30534 39.0927C-7.29961 39.2342 -7.26713 39.3674 -7.21364 39.4944C-6.83726 40.3498 -6.40929 41.1719 -5.92975 41.9608C-5.44829 42.7496 -4.92098 43.4989 -4.34399 44.2065C-3.76891 44.9142 -3.1499 45.576 -2.48885 46.188C-1.82779 46.8019 -1.13235 47.3618 -0.400614 47.8676C0.333037 48.3734 1.09344 48.8208 1.88249 49.2101C2.67346 49.5993 3.48353 49.926 4.31462 50.1924C5.14571 50.4568 5.99018 50.6566 6.84801 50.7919C7.70585 50.9272 8.56751 50.9958 9.43299 51C9.56099 51 9.68518 50.9729 9.80363 50.9188C9.92209 50.8647 10.0272 50.7877 10.1189 50.6878C10.2087 50.5879 10.2794 50.4734 10.329 50.3444C10.3787 50.2133 10.4035 50.078 10.4035 49.9364C10.4035 49.797 10.3787 49.6596 10.329 49.5306C10.2794 49.3995 10.2087 49.285 10.1189 49.1851C10.0272 49.0852 9.92209 49.0102 9.80363 48.9561C9.68518 48.902 9.56099 48.875 9.43299 48.875C8.6573 48.8729 7.88735 48.8104 7.11931 48.6897C6.35318 48.569 5.59851 48.39 4.8534 48.1527C4.11019 47.9155 3.38419 47.622 2.67728 47.2744C1.97038 46.9268 1.29022 46.5251 0.634904 46.0714C-0.0204144 45.6197 -0.643254 45.1181 -1.23552 44.5708C-1.82588 44.0213 -2.37994 43.4302 -2.89388 42.7975C-3.40973 42.1626 -3.88355 41.4945 -4.31342 40.7869C-4.74138 40.0813 -5.1254 39.3466 -5.45975 38.5807C-5.51516 38.4537 -5.59158 38.3434 -5.68711 38.2497C-5.78263 38.154 -5.89154 38.0832 -6.0119 38.0374C-6.13417 37.9896 -6.25836 37.9708 -6.38828 37.9771C-6.51628 37.9854 -6.63856 38.0187 -6.7551 38.0791ZM26.8954 24.8896C27.0234 24.8896 27.1476 24.8626 27.2661 24.8085C27.3845 24.7543 27.4896 24.6794 27.5813 24.5795C27.6711 24.4796 27.7418 24.3651 27.7915 24.234C27.8411 24.105 27.8641 23.9676 27.8641 23.8281V20.1879C27.8679 17.8776 27.5163 15.6339 26.8133 13.4548C26.7731 13.3195 26.7101 13.1946 26.626 13.0864C26.5401 12.9761 26.4388 12.8907 26.3203 12.8262C26.2019 12.7617 26.0777 12.7263 25.9478 12.718C25.816 12.7076 25.6879 12.7284 25.5638 12.7762C25.4415 12.8241 25.3307 12.897 25.2332 12.9948C25.1358 13.0905 25.0613 13.205 25.0059 13.3361C24.9524 13.4672 24.9218 13.6046 24.918 13.7482C24.9161 13.8918 24.9371 14.0313 24.9849 14.1645C25.6134 16.1147 25.9268 18.1211 25.9249 20.1879V23.8281C25.9249 23.9676 25.9497 24.105 25.9994 24.234C26.0471 24.3651 26.1178 24.4796 26.2095 24.5795C26.2993 24.6794 26.4044 24.7543 26.5229 24.8085C26.6432 24.8626 26.7655 24.8896 26.8954 24.8896ZM-1.96344 14.2644C-1.89657 14.1374 -1.85645 14.0001 -1.84117 13.8523C-1.82588 13.7045 -1.83926 13.5609 -1.87938 13.4194C-1.9195 13.2778 -1.98446 13.1509 -2.07235 13.0406C-2.16023 12.9282 -2.26531 12.8408 -2.38759 12.7762C-2.50986 12.7117 -2.63787 12.6784 -2.77352 12.6743C-2.90917 12.668 -3.03908 12.693 -3.16518 12.7492C-3.28937 12.8033 -3.40018 12.8824 -3.49571 12.9885C-3.58932 13.0947 -3.66192 13.2154 -3.70969 13.3528C-4.6535 15.5153 -5.12349 17.7923 -5.11967 20.1879V30.8131C-5.11776 31.3334 -5.09484 31.8538 -5.04707 32.3741C-5.00122 32.8924 -4.93053 33.4085 -4.83691 33.9205C-4.74329 34.4326 -4.62866 34.9383 -4.48919 35.4358C-4.34972 35.9353 -4.18924 36.4265 -4.00773 36.9093C-3.82432 37.3901 -3.6218 37.8626 -3.39636 38.3226C-3.17091 38.7826 -2.92636 39.228 -2.66271 39.663C-2.39714 40.0959 -2.11438 40.5142 -1.8106 40.918C-1.50873 41.3218 -1.18967 41.7068 -0.853415 42.0773C-0.515247 42.4457 -0.163706 42.7954 0.20503 43.1263C0.573766 43.4572 0.955876 43.7694 1.35136 44.0587C1.74684 44.348 2.1557 44.6165 2.57602 44.8621C2.99634 45.1098 3.42622 45.3325 3.86564 45.5323C4.30698 45.7321 4.75405 45.907 5.21067 46.0589C5.66538 46.2108 6.12774 46.3378 6.59391 46.4398C7.06199 46.5418 7.53199 46.6188 8.00581 46.6708C8.48153 46.7229 8.95535 46.7499 9.43299 46.7499C9.56099 46.7499 9.68518 46.7229 9.80363 46.6687C9.92209 46.6146 10.0272 46.5376 10.1189 46.4377C10.2087 46.3378 10.2794 46.2233 10.329 46.0943C10.3787 45.9632 10.4035 45.8279 10.4035 45.6863C10.4035 45.5469 10.3787 45.4116 10.329 45.2805C10.2794 45.1494 10.2087 45.0349 10.1189 44.935C10.0272 44.8372 9.92209 44.7602 9.80363 44.706C9.68518 44.6519 9.56099 44.6249 9.43299 44.6249C9.02031 44.6249 8.60763 44.602 8.19686 44.5562C7.78609 44.5125 7.37723 44.4459 6.97411 44.3564C6.56907 44.2669 6.16786 44.1586 5.77428 44.0254C5.3788 43.8943 4.99096 43.7424 4.60885 43.5696C4.22674 43.3948 3.85418 43.2012 3.49118 42.9889C3.12626 42.7746 2.77281 42.5435 2.42891 42.2917C2.08692 42.0398 1.75449 41.7714 1.43542 41.4841C1.11636 41.1969 0.810675 40.893 0.520271 40.5746C0.227957 40.2541 -0.0490734 39.919 -0.310819 39.5693C-0.574475 39.2196 -0.819025 38.8575 -1.04829 38.4828C-1.27756 38.1061 -1.48963 37.719 -1.6845 37.3194C-1.87938 36.9218 -2.05706 36.5139 -2.21564 36.0955C-2.3723 35.6772 -2.51177 35.2526 -2.63214 34.8197C-2.7525 34.3868 -2.85376 33.9497 -2.934 33.5064C-3.01425 33.063 -3.07538 32.6156 -3.11742 32.166C-3.15754 31.7164 -3.17855 31.2648 -3.17855 30.8131V20.1879C-3.18429 18.1128 -2.77925 16.1376 -1.96344 14.2644ZM23.0151 21.2494C23.1431 21.2494 23.2673 21.2223 23.3857 21.1682C23.5042 21.1162 23.6093 21.0392 23.701 20.9392C23.7908 20.8393 23.8615 20.7249 23.9111 20.5937C23.9589 20.4647 23.9837 20.3294 23.9837 20.1879C23.9837 19.6655 23.9608 19.1451 23.913 18.6269C23.8653 18.1065 23.7946 17.5904 23.7029 17.0804C23.6093 16.5684 23.4927 16.0627 23.3552 15.5632C23.2157 15.0636 23.0552 14.5724 22.8718 14.0916C22.6903 13.6088 22.4859 13.1384 22.2623 12.6784C22.0369 12.2184 21.7923 11.771 21.5268 11.338C21.2631 10.903 20.9784 10.4847 20.6766 10.0809C20.3747 9.67921 20.0537 9.29208 19.7175 8.92369C19.3812 8.55321 19.0278 8.20354 18.659 7.87261C18.2922 7.54168 17.9101 7.23156 17.5127 6.94225C17.1172 6.65087 16.7084 6.38237 16.29 6.13678C15.8696 5.89118 15.4398 5.66847 14.9984 5.46867C14.559 5.26886 14.11 5.09194 13.6553 4.94001C13.1987 4.78807 12.7382 4.66111 12.2702 4.55912C11.804 4.45714 11.3321 4.38013 10.8583 4.32809C10.3844 4.27606 9.90871 4.25108 9.43299 4.25108C7.81666 4.24276 6.24237 4.52582 4.71393 5.10027C3.18358 5.67264 1.78123 6.50309 0.506897 7.59371C0.405638 7.67905 0.323484 7.78311 0.260436 7.90591C0.195478 8.02871 0.155356 8.15984 0.140072 8.29928C0.124787 8.44082 0.13243 8.57818 0.16682 8.71347C0.201209 8.84876 0.258525 8.97364 0.336858 9.08395C0.41519 9.19634 0.510718 9.28584 0.623441 9.3566C0.734252 9.42529 0.854617 9.469 0.982624 9.48773C1.11063 9.50438 1.23673 9.49397 1.36091 9.45651C1.4851 9.41904 1.59782 9.35869 1.69908 9.27127C2.80338 8.32634 4.01849 7.6062 5.3425 7.11084C6.66842 6.6134 8.03255 6.36989 9.43299 6.37613C9.84567 6.37613 10.2564 6.39902 10.6691 6.44273C11.0799 6.48852 11.4868 6.55512 11.8919 6.64254C12.2969 6.73204 12.6962 6.84235 13.0917 6.97347C13.4872 7.1046 13.875 7.25862 14.2571 7.43137C14.6373 7.60412 15.0099 7.79768 15.3748 8.01206C15.7378 8.22436 16.0932 8.45747 16.4352 8.70723C16.7791 8.95907 17.1096 9.22964 17.4286 9.51479C17.7477 9.80201 18.0534 10.1059 18.3457 10.4264C18.638 10.7449 18.915 11.08 19.1768 11.4296C19.4385 11.7793 19.685 12.1414 19.9143 12.5182C20.1435 12.8928 20.3556 13.282 20.5505 13.6795C20.7454 14.0792 20.9211 14.4871 21.0797 14.9054C21.2383 15.3217 21.3777 15.7463 21.4981 16.1792C21.6185 16.6121 21.7178 17.0513 21.8 17.4946C21.8802 17.938 21.9414 18.3834 21.9815 18.835C22.0235 19.2846 22.0445 19.7362 22.0445 20.1879C22.0445 20.3294 22.0694 20.4647 22.1171 20.5937C22.1668 20.7249 22.2375 20.8393 22.3292 20.9392C22.419 21.0392 22.5241 21.1162 22.6425 21.1682C22.761 21.2223 22.8852 21.2494 23.0151 21.2494ZM2.19391 36.158C2.12131 36.0414 2.03152 35.9457 1.92453 35.8666C1.81753 35.7896 1.70099 35.7376 1.57489 35.7105C1.4488 35.6834 1.3227 35.6834 1.19661 35.7126C1.07051 35.7396 0.953966 35.7938 0.846975 35.8728C0.739985 35.9499 0.652099 36.0498 0.579498 36.1663C0.508808 36.2829 0.461044 36.4119 0.436207 36.5493C0.41137 36.6887 0.411369 36.8261 0.438117 36.9635C0.462954 37.1029 0.510718 37.2299 0.583319 37.3464C0.894738 37.8522 1.24246 38.3288 1.62266 38.7763C2.00286 39.2238 2.41172 39.6359 2.85114 40.0126C3.29057 40.3893 3.75292 40.7265 4.24202 41.0221C4.72921 41.3197 5.2336 41.5736 5.759 41.7838C6.28249 41.9941 6.81744 42.1585 7.36386 42.2771C7.91219 42.3958 8.46434 42.4665 9.02222 42.4915C9.57819 42.5144 10.1342 42.4915 10.6882 42.4186C11.2423 42.3479 11.7887 42.2292 12.3256 42.0648C12.4536 42.0294 12.5701 41.9691 12.6752 41.8837C12.7803 41.7963 12.8662 41.6923 12.9312 41.5674C12.9981 41.4425 13.0401 41.3093 13.0554 41.1657C13.0726 41.0242 13.063 40.8826 13.0267 40.7432C12.9923 40.6058 12.9331 40.4809 12.851 40.3685C12.7688 40.2561 12.6695 40.1646 12.5529 40.0959C12.4383 40.0293 12.3141 39.9876 12.1842 39.9752C12.0524 39.9606 11.9243 39.9752 11.8002 40.0189C11.3607 40.1542 10.9137 40.252 10.4609 40.3103C10.0081 40.3685 9.55335 40.3873 9.09673 40.3664C8.64011 40.3477 8.18922 40.2894 7.74215 40.1916C7.29317 40.0959 6.85565 39.9606 6.42769 39.7878C5.99973 39.6151 5.58514 39.409 5.18583 39.1655C4.78844 38.922 4.40824 38.6473 4.04906 38.3392C3.68987 38.0312 3.35553 37.694 3.04411 37.3277C2.73269 36.9635 2.44993 36.5722 2.19391 36.158ZM19.1328 26.563C19.2628 26.563 19.387 26.536 19.5054 26.4818C19.6239 26.4277 19.7289 26.3507 19.8206 26.2508C19.9104 26.1509 19.9811 26.0364 20.0308 25.9074C20.0786 25.7763 20.1034 25.641 20.1034 25.4995V20.1879C20.1034 19.2305 19.9983 18.2876 19.7863 17.3593C19.5761 16.4311 19.2647 15.5444 18.8558 14.6994C18.4451 13.8544 17.9464 13.076 17.3618 12.3641C16.7771 11.6544 16.1237 11.03 15.3996 10.4951C15.2926 10.416 15.1761 10.364 15.05 10.3348C14.9239 10.3078 14.7978 10.3078 14.6698 10.3348C14.5437 10.3619 14.4272 10.4139 14.3202 10.4909C14.2132 10.57 14.1234 10.6658 14.0508 10.7844C13.9801 10.901 13.9304 11.0279 13.9056 11.1653C13.8788 11.3047 13.8788 11.4421 13.9037 11.5816C13.9285 11.7189 13.9763 11.848 14.047 11.9645C14.1177 12.0832 14.2075 12.181 14.3144 12.2601C14.9067 12.6972 15.4417 13.2071 15.9212 13.7878C16.3989 14.3705 16.8058 15.0074 17.1421 15.6984C17.4764 16.3894 17.7305 17.1137 17.9044 17.8734C18.0763 18.6331 18.1642 19.4053 18.1642 20.1879V25.4995C18.1642 25.641 18.189 25.7763 18.2368 25.9074C18.2865 26.0364 18.3572 26.1509 18.447 26.2508C18.5387 26.3507 18.6437 26.4277 18.7622 26.4818C18.8807 26.536 19.0048 26.563 19.1328 26.563ZM10.4035 9.56266C10.4035 9.42113 10.3787 9.28584 10.329 9.1568C10.2794 9.02567 10.2087 8.9112 10.1189 8.81129C10.0272 8.71139 9.92209 8.63438 9.80363 8.58027C9.68518 8.52615 9.56099 8.50117 9.43299 8.50117C9.08336 8.50117 8.73373 8.51991 8.38792 8.55737C8.0402 8.59483 7.69439 8.65103 7.3524 8.72596C7.0085 8.80089 6.67033 8.89455 6.33599 9.00694C6.00164 9.11725 5.67302 9.24629 5.35014 9.39407C5.02726 9.53976 4.71202 9.70419 4.40442 9.88318C4.09682 10.0643 3.79686 10.262 3.50646 10.4743C3.21606 10.6866 2.93521 10.9134 2.66582 11.157C2.39643 11.4005 2.1366 11.6565 1.89014 11.9271C1.64367 12.1976 1.40868 12.4807 1.18705 12.7762C0.965428 13.0718 0.757179 13.3798 0.564214 13.6983C0.369337 14.0146 0.189745 14.3435 0.0254383 14.6807C-0.14078 15.0178 -0.289803 15.3633 -0.423541 15.7172C-0.55728 16.071 -0.675733 16.4311 -0.776993 16.7953C-0.878252 17.1616 -0.964226 17.5321 -1.0311 17.9088C-1.09988 18.2835 -1.15146 18.6623 -1.18585 19.0431C-1.22024 19.424 -1.23744 19.8049 -1.23935 20.1879V30.8131C-1.23935 30.9526 -1.21451 31.0878 -1.16483 31.219C-1.11516 31.3501 -1.04638 31.4646 -0.954674 31.5645C-0.862967 31.6623 -0.757887 31.7393 -0.639433 31.7934C-0.520979 31.8475 -0.396793 31.8746 -0.268786 31.8746C-0.140779 31.8746 -0.0165943 31.8475 0.10186 31.7934C0.222224 31.7393 0.327305 31.6623 0.417101 31.5645C0.508807 31.4646 0.577588 31.3501 0.627262 31.219C0.676937 31.0878 0.701774 30.9526 0.701774 30.8131V20.1879C0.701774 19.8736 0.717057 19.5614 0.743805 19.2513C0.772463 18.9391 0.814496 18.629 0.871812 18.323C0.927218 18.015 0.995997 17.7132 1.08006 17.4135C1.16222 17.1137 1.25965 16.8182 1.36856 16.5289C1.47746 16.2417 1.59973 15.9586 1.73538 15.6818C1.87103 15.405 2.01623 15.1386 2.17672 14.8784C2.33529 14.6182 2.50533 14.3664 2.68683 14.1249C2.86834 13.8814 3.05939 13.6504 3.26191 13.4298C3.46443 13.2071 3.67459 12.9969 3.89621 12.7991C4.11784 12.5993 4.3471 12.4141 4.58401 12.2393C4.82092 12.0665 5.06738 11.9042 5.31957 11.7564C5.56985 11.6107 5.82969 11.4754 6.09335 11.3568C6.357 11.2361 6.62639 11.1299 6.8996 11.0383C7.17281 10.9488 7.44984 10.8718 7.73069 10.8115C8.00963 10.749 8.29239 10.7032 8.57706 10.672C8.86173 10.6408 9.1464 10.6262 9.43299 10.6262C9.56099 10.6262 9.68518 10.5992 9.80363 10.545C9.92209 10.4909 10.0272 10.4139 10.1189 10.314C10.2087 10.2141 10.2794 10.0996 10.329 9.96852C10.3787 9.83947 10.4035 9.70419 10.4035 9.56266ZM9.43299 12.7492C8.64775 12.745 7.88544 12.8866 7.14415 13.1759C7.02951 13.2258 6.92634 13.2987 6.83464 13.3944C6.74484 13.4901 6.67415 13.6005 6.62257 13.7253C6.57098 13.8502 6.54423 13.9813 6.5385 14.1187C6.53277 14.2561 6.55188 14.3893 6.59391 14.5183C6.63594 14.6474 6.69899 14.7639 6.78114 14.8659C6.86521 14.9679 6.96265 15.0511 7.07537 15.1115C7.18618 15.1719 7.30463 15.2093 7.43073 15.2197C7.55492 15.2301 7.67719 15.2156 7.79756 15.1739C7.97906 15.1032 8.16629 15.0428 8.35353 14.997C8.54267 14.9492 8.73373 14.9138 8.92669 14.893C9.11966 14.8701 9.31453 14.8617 9.5075 14.8638C9.70237 14.868 9.89534 14.8826 10.0864 14.9117C10.2794 14.9408 10.4685 14.9825 10.6557 15.0345C10.8449 15.0886 11.0283 15.1552 11.2079 15.2322C11.3894 15.3113 11.5652 15.3987 11.7352 15.5007C11.9071 15.6006 12.0715 15.713 12.23 15.8358C12.3886 15.9586 12.5395 16.0897 12.6828 16.2333C12.8261 16.3749 12.9618 16.5268 13.0898 16.6871C13.2178 16.8473 13.3362 17.0138 13.4451 17.1908C13.554 17.3656 13.6534 17.5488 13.7413 17.7361C13.8311 17.9255 13.9094 18.119 13.9763 18.3188C14.0451 18.5166 14.1024 18.7205 14.1463 18.9266C14.1922 19.1326 14.2266 19.3408 14.2495 19.5531C14.2724 19.7633 14.2839 19.9756 14.2839 20.1879C14.2839 20.3294 14.3087 20.4647 14.3565 20.5937C14.4061 20.7249 14.4768 20.8393 14.5666 20.9392C14.6583 21.0392 14.7634 21.1162 14.8819 21.1682C15.0003 21.2223 15.1245 21.2494 15.2525 21.2494C15.3824 21.2494 15.5066 21.2223 15.6251 21.1682C15.7435 21.1162 15.8486 21.0392 15.9384 20.9392C16.0301 20.8393 16.1008 20.7249 16.1505 20.5937C16.1982 20.4647 16.2231 20.3294 16.2231 20.1879C16.2231 19.6988 16.1791 19.2159 16.0932 18.7372C16.0053 18.2585 15.8773 17.7923 15.7072 17.3406C15.5353 16.891 15.327 16.4623 15.0787 16.0564C14.8303 15.6485 14.5494 15.2738 14.2342 14.9283C13.919 14.5828 13.577 14.2748 13.2044 14.0042C12.8338 13.7316 12.444 13.5026 12.0313 13.3153C11.6187 13.1301 11.1945 12.9885 10.757 12.8928C10.3195 12.7971 9.87815 12.7492 9.43299 12.7492ZM4.98523 15.9378C4.87633 15.8629 4.75787 15.815 4.62986 15.7942C4.50377 15.7713 4.37767 15.7754 4.25158 15.8088C4.12739 15.8421 4.01276 15.9003 3.90768 15.9815C3.80451 16.0648 3.71853 16.1667 3.64975 16.2854C2.97724 17.4821 2.64098 18.783 2.64098 20.1879V30.8131C2.64098 30.9526 2.66582 31.0878 2.71549 31.219C2.76517 31.3501 2.83586 31.4646 2.92565 31.5645C3.01736 31.6623 3.12244 31.7393 3.24089 31.7934C3.35935 31.8475 3.48353 31.8746 3.61154 31.8746C3.74146 31.8746 3.86373 31.8475 3.98219 31.7934C4.10255 31.7393 4.20763 31.6623 4.29743 31.5645C4.38913 31.4646 4.45983 31.3501 4.50759 31.219C4.55726 31.0878 4.5821 30.9526 4.5821 30.8131V20.1879C4.58019 19.1847 4.82092 18.2564 5.30238 17.401C5.36925 17.2823 5.41319 17.1512 5.43421 17.0118C5.45522 16.8744 5.4514 16.7349 5.42083 16.5976C5.39217 16.4602 5.33868 16.3353 5.26417 16.2209C5.18774 16.1064 5.09604 16.0106 4.98523 15.9378ZM16.2231 25.4995C16.2231 25.36 16.1982 25.2226 16.1505 25.0936C16.1008 24.9625 16.0301 24.848 15.9384 24.7481C15.8486 24.6482 15.7435 24.5733 15.6251 24.5191C15.5066 24.465 15.3824 24.438 15.2525 24.438C15.1245 24.438 15.0003 24.465 14.8819 24.5191C14.7634 24.5733 14.6583 24.6482 14.5666 24.7481C14.4768 24.848 14.4061 24.9625 14.3565 25.0936C14.3087 25.2226 14.2839 25.36 14.2839 25.4995V30.8131C14.2839 31.04 14.2686 31.2689 14.2418 31.4958C14.2151 31.7227 14.175 31.9454 14.1215 32.166C14.068 32.3887 14.0011 32.6051 13.9228 32.8154C13.8444 33.0277 13.7527 33.2316 13.6496 33.4314C13.5464 33.6292 13.4318 33.8206 13.3076 34.0038C13.1815 34.187 13.0458 34.3597 12.8987 34.5221C12.7535 34.6865 12.5988 34.8384 12.4345 34.9799C12.2702 35.1215 12.1001 35.2505 11.9205 35.3671C11.7409 35.4857 11.5556 35.5898 11.3646 35.6814C11.1716 35.7709 10.9767 35.8479 10.7761 35.9124C10.5755 35.9748 10.3711 36.0248 10.1647 36.0581C9.95839 36.0935 9.75205 36.1122 9.5438 36.1184C9.33364 36.1226 9.12539 36.1143 8.91905 36.0893C8.7108 36.0664 8.50637 36.0269 8.30194 35.9727C8.09942 35.9207 7.90073 35.852 7.70585 35.7709C7.51097 35.6897 7.32183 35.596 7.13651 35.4878C7.02378 35.4212 6.90342 35.3796 6.77541 35.3671C6.6474 35.3525 6.52131 35.365 6.39903 35.4066C6.27485 35.4462 6.16404 35.5128 6.06469 35.6002C5.96534 35.6897 5.8851 35.7958 5.82396 35.9207C5.76282 36.0435 5.72652 36.1767 5.71315 36.3162C5.69977 36.4577 5.71124 36.5951 5.74945 36.7283C5.78575 36.8636 5.84497 36.9864 5.92522 37.0946C6.00737 37.2049 6.10481 37.2923 6.21753 37.3589C6.47546 37.5109 6.74102 37.6441 7.01423 37.7585C7.28744 37.8709 7.56638 37.9667 7.84914 38.0416C8.13381 38.1144 8.42231 38.1706 8.71271 38.2039C9.00311 38.2372 9.29352 38.2518 9.58583 38.2435C9.87815 38.2372 10.1685 38.2081 10.459 38.1602C10.7474 38.1124 11.0321 38.0437 11.313 37.9542C11.5938 37.8668 11.8689 37.7585 12.1364 37.6295C12.4058 37.5025 12.6637 37.3568 12.9159 37.1924C13.1662 37.028 13.4069 36.8469 13.6362 36.6492C13.8655 36.4515 14.0833 36.2371 14.2877 36.0081C14.4921 35.7792 14.6813 35.5377 14.857 35.2817C15.0328 35.0257 15.1933 34.7593 15.3385 34.4804C15.4818 34.2015 15.6098 33.9143 15.7206 33.6188C15.8314 33.3211 15.9231 33.0193 15.9976 32.7092C16.0721 32.3991 16.1295 32.0869 16.1658 31.7684C16.204 31.4521 16.2231 31.1316 16.2231 30.8131V25.4995ZM8.46243 31.8746C8.46243 32.0161 8.48727 32.1514 8.53694 32.2805C8.5847 32.4116 8.65539 32.5261 8.7471 32.626C8.83689 32.7259 8.94198 32.8029 9.06043 32.857C9.1808 32.9111 9.30307 32.9382 9.43299 32.9382C9.56099 32.9382 9.68518 32.9111 9.80363 32.857C9.92209 32.8029 10.0272 32.7259 10.1189 32.626C10.2087 32.5261 10.2794 32.4116 10.329 32.2805C10.3787 32.1514 10.4035 32.0161 10.4035 31.8746V27.3185C10.4035 27.177 10.3787 27.0417 10.329 26.9127C10.2794 26.7816 10.2087 26.6671 10.1189 26.5672C10.0272 26.4673 9.92209 26.3903 9.80363 26.3382C9.68518 26.2841 9.56099 26.2571 9.43299 26.2571C9.30307 26.2571 9.1808 26.2841 9.06043 26.3382C8.94198 26.3903 8.83689 26.4673 8.7471 26.5672C8.65539 26.6671 8.5847 26.7816 8.53694 26.9127C8.48727 27.0417 8.46243 27.177 8.46243 27.3185V31.8746ZM9.43299 24.132C9.56099 24.132 9.68518 24.105 9.80363 24.0508C9.92209 23.9967 10.0272 23.9197 10.1189 23.8198C10.2087 23.7199 10.2794 23.6054 10.329 23.4764C10.3787 23.3453 10.4035 23.21 10.4035 23.0685V19.1243C10.4035 18.9849 10.3787 18.8496 10.329 18.7185C10.2794 18.5873 10.2087 18.4729 10.1189 18.373C10.0272 18.2751 9.92209 18.1981 9.80363 18.144C9.68518 18.0899 9.56099 18.0628 9.43299 18.0628C9.30307 18.0628 9.1808 18.0899 9.06043 18.144C8.94198 18.1981 8.83689 18.2751 8.7471 18.373C8.65539 18.4729 8.5847 18.5873 8.53694 18.7185C8.48727 18.8496 8.46243 18.9849 8.46243 19.1243V23.0685C8.46243 23.21 8.48727 23.3453 8.53694 23.4764C8.5847 23.6054 8.65539 23.7199 8.7471 23.8198C8.83689 23.9197 8.94198 23.9967 9.06043 24.0508C9.1808 24.105 9.30307 24.132 9.43299 24.132ZM37.5658 37.8813V48.1798C37.5658 48.365 37.5486 48.5482 37.5162 48.7293C37.4837 48.9103 37.434 49.0873 37.369 49.2579C37.3041 49.4286 37.2258 49.5909 37.1321 49.745C37.0366 49.899 36.9315 50.0426 36.8112 50.1737C36.6927 50.3048 36.5609 50.4214 36.4214 50.5234C36.28 50.6274 36.1329 50.7128 35.9763 50.7835C35.8196 50.8543 35.6591 50.9084 35.4929 50.9459C35.3286 50.9813 35.1605 51 34.9904 51H18.7985C18.6285 51 18.4622 50.9813 18.296 50.9459C18.1298 50.9084 17.9693 50.8543 17.8127 50.7835C17.6579 50.7128 17.5089 50.6274 17.3675 50.5234C17.228 50.4214 17.0981 50.3048 16.9777 50.1737C16.8593 50.0426 16.7523 49.899 16.6587 49.745C16.5632 49.5909 16.4848 49.4286 16.4199 49.2579C16.3549 49.0873 16.3071 48.9103 16.2728 48.7293C16.2403 48.5482 16.2231 48.365 16.2231 48.1798V37.8813C16.2231 37.6961 16.2403 37.5129 16.2728 37.3319C16.3071 37.1508 16.3549 36.9739 16.4199 36.8032C16.4848 36.6325 16.5632 36.4702 16.6587 36.3162C16.7523 36.1621 16.8593 36.0206 16.9777 35.8895C17.0981 35.7584 17.228 35.6418 17.3675 35.5377C17.5089 35.4358 17.6579 35.3483 17.8127 35.2776C17.9693 35.2068 18.1298 35.1527 18.296 35.1173C18.4622 35.0799 18.6285 35.0632 18.7985 35.0632H21.3816V33.0401C21.3816 32.6426 21.4179 32.2513 21.4886 31.8621C21.5592 31.4729 21.6643 31.0962 21.8019 30.7299C21.9414 30.3635 22.1095 30.0139 22.312 29.685C22.5126 29.3562 22.7419 29.0502 22.9979 28.7713C23.252 28.4903 23.5309 28.2406 23.8328 28.02C24.1328 27.7993 24.4518 27.6141 24.7862 27.4622C25.1205 27.3102 25.4644 27.1957 25.8198 27.1187C26.1751 27.0417 26.5324 27.0022 26.8954 27.0022C27.2565 27.0022 27.6157 27.0417 27.9691 27.1187C28.3245 27.1957 28.6703 27.3102 29.0047 27.4622C29.339 27.6141 29.6562 27.7993 29.958 28.02C30.258 28.2406 30.5369 28.4903 30.7929 28.7713C31.049 29.0502 31.2763 29.3562 31.4788 29.685C31.6794 30.0139 31.8495 30.3635 31.987 30.7299C32.1265 31.0962 32.2297 31.4729 32.3004 31.8621C32.3711 32.2513 32.4074 32.6426 32.4074 33.0401V35.0632H34.9904C35.1605 35.0632 35.3286 35.0799 35.4929 35.1173C35.6591 35.1527 35.8196 35.2068 35.9763 35.2776C36.1329 35.3483 36.28 35.4358 36.4214 35.5377C36.5609 35.6418 36.6927 35.7584 36.8112 35.8895C36.9315 36.0206 37.0366 36.1621 37.1321 36.3162C37.2258 36.4702 37.3041 36.6325 37.369 36.8032C37.434 36.9739 37.4837 37.1508 37.5162 37.3319C37.5486 37.5129 37.5658 37.6961 37.5658 37.8813ZM23.3227 35.0632H30.4662V33.0401C30.4662 32.7821 30.4433 32.5281 30.3975 32.2763C30.3516 32.0244 30.2828 31.7809 30.193 31.5437C30.1032 31.3064 29.9943 31.0816 29.8644 30.8672C29.7326 30.6549 29.5855 30.4572 29.4193 30.2761C29.253 30.0951 29.0734 29.9327 28.8786 29.7891C28.6837 29.6476 28.4774 29.5268 28.2615 29.429C28.0437 29.3312 27.8201 29.2563 27.5909 29.2063C27.3616 29.1564 27.1285 29.1314 26.8954 29.1314C26.6604 29.1314 26.4273 29.1564 26.1981 29.2063C25.9688 29.2563 25.7453 29.3312 25.5294 29.429C25.3116 29.5268 25.1071 29.6476 24.9104 29.7891C24.7155 29.9327 24.5359 30.0951 24.3697 30.2761C24.2034 30.4572 24.0563 30.6549 23.9264 30.8672C23.7965 31.0816 23.6857 31.3064 23.5959 31.5437C23.5061 31.7809 23.4373 32.0244 23.3915 32.2763C23.3456 32.5281 23.3227 32.7821 23.3227 33.0401V35.0632ZM35.6266 37.8813C35.6247 37.7898 35.6094 37.7023 35.577 37.617C35.5445 37.5317 35.4986 37.4567 35.4394 37.3922C35.3802 37.3256 35.3114 37.2757 35.2331 37.2403C35.1566 37.2049 35.0745 37.1882 34.9904 37.1882H18.7985C18.7144 37.1882 18.6323 37.2049 18.5559 37.2403C18.4775 37.2757 18.4088 37.3256 18.3495 37.3922C18.2903 37.4567 18.2444 37.5317 18.212 37.617C18.1795 37.7023 18.1642 37.7898 18.1642 37.8813V48.1798C18.1642 48.2714 18.1795 48.3609 18.212 48.4462C18.2444 48.5295 18.2903 48.6044 18.3495 48.671C18.4088 48.7355 18.4775 48.7855 18.5559 48.8208C18.6323 48.8562 18.7144 48.875 18.7985 48.875H34.9904C35.0745 48.875 35.1566 48.8562 35.2331 48.8208C35.3114 48.7855 35.3802 48.7355 35.4394 48.671C35.4986 48.6044 35.5445 48.5295 35.577 48.4462C35.6094 48.3609 35.6247 48.2714 35.6266 48.1798V37.8813ZM26.8954 40.9055C26.7674 40.9055 26.6413 40.9201 26.5171 40.9471C26.391 40.9742 26.2707 41.0137 26.1522 41.0679C26.0338 41.122 25.9229 41.1865 25.816 41.2635C25.7109 41.3405 25.6134 41.43 25.5236 41.5278C25.4319 41.6277 25.3517 41.7339 25.281 41.8504C25.2103 41.967 25.1511 42.0898 25.1014 42.2168C25.0536 42.3458 25.0173 42.479 24.9925 42.6164C24.9677 42.7537 24.9543 42.8911 24.9543 43.0306C24.9543 43.17 24.9677 43.3095 24.9925 43.4447C25.0173 43.5821 25.0536 43.7153 25.1014 43.8444C25.1511 43.9734 25.2103 44.0962 25.281 44.2107C25.3517 44.3272 25.4319 44.4355 25.5236 44.5333C25.6134 44.6311 25.7109 44.7206 25.816 44.7976C25.9229 44.8746 26.0338 44.9412 26.1522 44.9933C26.2707 45.0474 26.391 45.0869 26.5171 45.114C26.6413 45.1431 26.7674 45.1556 26.8954 45.1556C27.0215 45.1556 27.1476 45.1431 27.2737 45.114C27.3979 45.0869 27.5202 45.0474 27.6367 44.9933C27.7552 44.9412 27.866 44.8746 27.973 44.7976C28.078 44.7206 28.1774 44.6311 28.2672 44.5333C28.357 44.4355 28.4372 44.3272 28.5079 44.2107C28.5786 44.0962 28.6378 43.9734 28.6875 43.8444C28.7353 43.7153 28.7735 43.5821 28.7983 43.4447C28.8232 43.3095 28.8346 43.17 28.8346 43.0306C28.8346 42.8911 28.8232 42.7537 28.7983 42.6164C28.7735 42.479 28.7353 42.3458 28.6875 42.2168C28.6378 42.0898 28.5786 41.967 28.5079 41.8504C28.4372 41.7339 28.357 41.6277 28.2672 41.5278C28.1774 41.43 28.078 41.3405 27.973 41.2635C27.866 41.1865 27.7552 41.122 27.6367 41.0679C27.5202 41.0137 27.3979 40.9742 27.2737 40.9471C27.1476 40.9201 27.0215 40.9055 26.8954 40.9055Z" fill="url(#paint0_linear_7001_1127)"/>
</g>
<defs>
<linearGradient id="paint0_linear_7001_1127" x1="14.2829" y1="0" x2="14.2829" y2="51" gradientUnits="userSpaceOnUse">
<stop stop-color="#1953FF"/>
<stop offset="1" stop-color="#B3D9FF"/>
</linearGradient>
</defs>
</svg>
