<svg width="60" height="52" viewBox="0 0 60 52" fill="none" xmlns="http://www.w3.org/2000/svg">
<path d="M10.8846 1L5.94256 1C3.21313 1 1.00049 3.21264 1.00049 5.94207L1.00049 10.8841" stroke="url(#paint0_linear_7001_1159)" stroke-opacity="0.6" stroke-width="2" stroke-linecap="round" stroke-linejoin="round"/>
<path d="M35.5947 1L40.5368 1C43.2663 1 45.4789 3.21264 45.4789 5.94207V10.8841" stroke="url(#paint1_linear_7001_1159)" stroke-opacity="0.6" stroke-width="2" stroke-linecap="round" stroke-linejoin="round"/>
<path d="M33.1245 13.3555V18.2975" stroke="url(#paint2_linear_7001_1159)" stroke-opacity="0.6" stroke-width="2" stroke-linecap="round" stroke-linejoin="round"/>
<path d="M13.355 13.3555V18.2975" stroke="url(#paint3_linear_7001_1159)" stroke-opacity="0.6" stroke-width="2" stroke-linecap="round" stroke-linejoin="round"/>
<path d="M15.8257 33.1235C15.8257 33.1235 18.2967 35.5946 23.2388 35.5946C28.1809 35.5946 30.6519 33.1235 30.6519 33.1235" stroke="url(#paint4_linear_7001_1159)" stroke-opacity="0.6" stroke-width="2" stroke-linecap="round" stroke-linejoin="round"/>
<path d="M23.2396 13.3555V25.7106H20.7686" stroke="url(#paint5_linear_7001_1159)" stroke-opacity="0.6" stroke-width="2" stroke-linecap="round" stroke-linejoin="round"/>
<path d="M10.8841 45.4789H5.94207C3.21264 45.4789 1 43.2663 1 40.5368L1 35.5947" stroke="url(#paint6_linear_7001_1159)" stroke-opacity="0.6" stroke-width="2" stroke-linecap="round" stroke-linejoin="round"/>
<path d="M35.5947 45.4789H40.5368C43.2663 45.4789 45.4789 43.2663 45.4789 40.5368V35.5947" stroke="url(#paint7_linear_7001_1159)" stroke-opacity="0.6" stroke-width="2" stroke-linecap="round" stroke-linejoin="round"/>
<g clip-path="url(#clip0_7001_1159)">
<path d="M48.2302 49.9136C48.1144 50.012 47.9377 50.0018 47.8351 49.8904C47.7328 49.779 47.7437 49.6088 47.8595 49.5103C48.1771 49.2404 48.4092 48.8924 48.543 48.4551C48.6814 48.0038 48.7159 47.4547 48.6344 46.7964C48.4836 46.0842 48.4564 45.4266 48.5448 44.8331C48.6369 44.211 48.8556 43.6587 49.1897 43.187C49.277 43.0642 49.4515 43.0324 49.5792 43.1165C49.7072 43.2002 49.7399 43.368 49.6528 43.4909C49.3672 43.8942 49.1798 44.37 49.0998 44.909C49.0203 45.4432 49.0455 46.0395 49.1831 46.6887C49.1866 46.7016 49.1894 46.7153 49.1912 46.7292C49.2826 47.4622 49.2407 48.0844 49.0805 48.6073C48.9157 49.1454 48.627 49.5763 48.2302 49.9136ZM49.5226 49.8007C49.6048 49.6747 49.778 49.6371 49.9088 49.7162C50.0395 49.7954 50.0789 49.9617 49.9966 50.0877L49.4723 50.8916C49.39 51.0176 49.2171 51.0555 49.0861 50.9761C48.9553 50.897 48.916 50.7306 48.9985 50.6048L49.5226 49.8007ZM52.1924 50.077C52.2256 49.9319 52.3749 49.8401 52.5258 49.8721C52.6766 49.9041 52.7721 50.0479 52.7388 50.193L52.5121 51.1742C52.4788 51.3193 52.3292 51.4109 52.1784 51.3789C52.0276 51.3469 51.9324 51.2033 51.9656 51.0582L52.1924 50.077ZM52.4877 45.2498C52.4598 45.1037 52.5606 44.9633 52.7126 44.9364C52.8645 44.9095 53.0105 45.0065 53.0384 45.1528C53.1707 45.8367 53.2342 46.528 53.2362 47.2229C53.2385 47.9144 53.1796 48.609 53.0679 49.3039C53.0442 49.4507 52.9013 49.5514 52.7487 49.5286C52.5958 49.5059 52.4912 49.3684 52.5148 49.2216C52.6223 48.5541 52.6789 47.8868 52.6768 47.2229C52.6748 46.5624 52.6141 45.9039 52.4877 45.2498ZM50.7535 51.2853C50.6641 51.407 50.4892 51.4358 50.363 51.3498C50.2365 51.2641 50.2066 51.0958 50.2957 50.9741C50.477 50.7282 50.6311 50.4571 50.7571 50.161L50.7631 50.1481C50.886 49.8559 50.9815 49.5387 51.048 49.1955L51.0483 49.1945C51.174 48.5455 51.1135 47.715 51.0564 46.9303C51.0371 46.6665 51.0183 46.4071 51.0061 46.1401C50.9886 45.7503 50.9813 45.367 51.0567 45.0182C51.1397 44.6352 51.3187 44.3023 51.677 44.061C51.758 44.0065 51.8448 43.9582 51.9382 43.9166C52.0319 43.8749 52.1335 43.8385 52.2424 43.8087C52.3237 43.7864 52.4039 43.7689 52.4821 43.7559C53.0189 43.6677 53.4452 43.8018 53.7742 44.0781C54.0855 44.3394 54.2973 44.7241 54.4265 45.1604C54.4651 45.2906 54.4966 45.4266 54.5212 45.5658C54.5347 45.6413 54.5461 45.7183 54.5555 45.795C54.5646 45.8707 54.572 45.9486 54.5773 46.0277C54.6014 46.3778 54.6078 46.7656 54.5979 47.1733C54.3272 47.4781 54.1169 47.8281 53.9771 48.2058C54.0434 47.4388 54.0591 46.6858 54.0165 46.0617C54.0119 45.9957 54.0053 45.9271 53.9966 45.8563C53.9888 45.7901 53.9786 45.7234 53.9669 45.6567C53.9459 45.5378 53.9184 45.4208 53.8852 45.3084C53.7839 44.9655 53.6267 44.6709 53.4048 44.4845C53.2006 44.3133 52.9285 44.2315 52.5765 44.2894C52.5194 44.2989 52.4592 44.3121 52.3963 44.3294C52.314 44.3519 52.2399 44.378 52.1736 44.4076C52.1071 44.4371 52.0489 44.4694 51.9981 44.5033C51.776 44.6531 51.6622 44.8717 51.6069 45.1281C51.5439 45.4183 51.5513 45.763 51.5673 46.1169C51.5779 46.3509 51.5975 46.6201 51.6175 46.8944C51.677 47.7107 51.7399 48.5748 51.6003 49.2939C51.5266 49.6718 51.42 50.024 51.2821 50.3515L51.2763 50.3664C51.1351 50.6979 50.9604 51.0042 50.7535 51.2853ZM54.1299 50.7597C54.0794 50.957 54.0248 51.1449 53.9669 51.3202C53.9202 51.4622 53.7625 51.5411 53.615 51.4961C53.4673 51.4512 53.3855 51.2992 53.4322 51.1573C53.5774 50.7177 53.7001 50.1903 53.7961 49.6271C53.8364 50.0301 53.9522 50.4121 54.1299 50.7597ZM50.299 49.0206C50.2723 49.1676 50.1271 49.2658 49.9745 49.2402C49.8217 49.2145 49.7196 49.0746 49.7463 48.9278C49.8057 48.6056 49.8394 48.2453 49.8514 47.8533C49.8633 47.4552 49.8531 47.0187 49.8255 46.5521C49.8194 46.4486 49.8105 46.3252 49.8016 46.2058C49.743 45.4073 49.6957 44.7637 50.1822 43.9315C50.2894 43.7479 50.4186 43.5771 50.572 43.4206C50.7256 43.2637 50.902 43.1226 51.1034 42.9995C51.1173 42.9909 51.1321 42.9836 51.1468 42.9777C51.4423 42.8412 51.7374 42.7352 52.0312 42.6663C52.3351 42.5947 52.6362 42.5635 52.9335 42.5789C53.0879 42.5864 53.207 42.7129 53.1991 42.8617C53.1913 43.0102 53.0595 43.1248 52.9051 43.1172C52.6621 43.1045 52.4143 43.1306 52.1627 43.1897C51.9121 43.2486 51.6551 43.3412 51.3939 43.4618C51.2352 43.5598 51.0978 43.6697 50.98 43.7899C50.8596 43.9127 50.7573 44.0485 50.6715 44.1953C50.267 44.8873 50.3092 45.4589 50.361 46.1677V46.1687C50.3688 46.2754 50.377 46.3848 50.3851 46.5226C50.4133 46.9989 50.4234 47.4495 50.4107 47.868C50.398 48.2927 50.362 48.6796 50.299 49.0206ZM53.9136 43.4164C53.7816 43.339 53.7399 43.1729 53.8204 43.0459C53.9009 42.9189 54.0736 42.8788 54.2056 42.9562C54.2808 43.0004 54.3577 43.0508 54.4359 43.1074C54.5151 43.1646 54.5903 43.2242 54.6609 43.286C55.4774 43.9992 55.8499 45.0695 55.968 46.2373C55.7796 46.3074 55.5993 46.3931 55.4289 46.4926C55.3459 45.3665 55.0283 44.3353 54.2836 43.6848C54.2198 43.6291 54.1586 43.5803 54.1002 43.538C54.0402 43.4945 53.9779 43.4539 53.9136 43.4164ZM47.4631 48.8987C47.3463 48.9959 47.1694 48.9837 47.0683 48.8711C46.967 48.7587 46.9799 48.5885 47.0967 48.4913C47.1605 48.438 47.2168 48.3748 47.2651 48.301C47.3151 48.2248 47.3573 48.1357 47.3905 48.0336C47.5616 47.5084 47.4578 46.9576 47.3524 46.3995C47.2803 46.0175 47.2077 45.6323 47.2102 45.2283C47.2229 43.167 48.5628 41.4861 50.3163 40.6255C51.0518 40.2645 51.8626 40.0474 52.6801 40.0068C53.5015 39.9663 54.329 40.1046 55.0938 40.4543C56.7927 41.2318 58.1739 43.0449 58.4697 46.25C58.2836 46.1787 58.0894 46.1223 57.889 46.0829C57.5749 43.2335 56.3496 41.626 54.8546 40.9419C54.1762 40.6314 53.4401 40.509 52.7086 40.5452C51.9728 40.5816 51.2392 40.7787 50.5709 41.107C48.9896 41.883 47.781 43.3898 47.7696 45.2305C47.7676 45.5851 47.8356 45.9464 47.9031 46.3042C48.021 46.929 48.1375 47.5455 47.926 48.194C47.8783 48.3401 47.8156 48.4715 47.7391 48.588C47.6609 48.7075 47.5685 48.8108 47.4631 48.8987ZM50.8586 42.4172C50.7248 42.4919 50.5532 42.4479 50.4757 42.3192C50.3983 42.1902 50.444 42.0254 50.5778 41.9506C50.8693 41.7889 51.1796 41.6605 51.5007 41.5667C52.3803 41.3095 53.3357 41.3168 54.2041 41.6101C55.0773 41.9052 55.8623 42.4868 56.3963 43.3761C56.5738 43.6721 56.7239 44.0036 56.8399 44.3707C56.9963 44.8663 57.1052 45.4154 57.1649 46.017C56.9745 46.0189 56.7876 46.0358 56.6058 46.0666C56.5497 45.497 56.4486 44.9833 56.3044 44.5268C56.2021 44.2027 56.069 43.9096 55.9114 43.6462C55.4487 42.8759 54.7713 42.3727 54.0198 42.1189C53.2636 41.8634 52.4308 41.8573 51.663 42.0816C51.3852 42.1629 51.1146 42.275 50.8586 42.4172Z" fill="url(#paint8_linear_7001_1159)"/>
<path fill-rule="evenodd" clip-rule="evenodd" d="M57.2023 46.6167C58.7481 46.6167 60.0001 47.8221 60.0001 49.3081C60.0001 50.7952 58.7471 51.9998 57.2023 51.9998C55.6566 51.9998 54.4043 50.7944 54.4043 49.3081C54.4043 47.8214 55.6573 46.6167 57.2023 46.6167ZM56.334 48.8805L56.8299 49.3311L58.0016 48.1882C58.0989 48.0935 58.1598 48.0175 58.2794 48.136L58.6681 48.519C58.7956 48.6404 58.7893 48.7114 58.6689 48.8245L57.0518 50.355C56.7979 50.5944 56.8421 50.609 56.5846 50.3636L55.6799 49.4979C55.6261 49.442 55.6319 49.3856 55.6908 49.3296L56.1418 48.88C56.2101 48.8106 56.2644 48.8167 56.334 48.8805Z" fill="#1953FF"/>
</g>
<defs>
<linearGradient id="paint0_linear_7001_1159" x1="5.94256" y1="1" x2="5.94256" y2="10.8841" gradientUnits="userSpaceOnUse">
<stop stop-color="#1953FF"/>
<stop offset="1" stop-color="#59ACFF"/>
</linearGradient>
<linearGradient id="paint1_linear_7001_1159" x1="40.5368" y1="1" x2="40.5368" y2="10.8841" gradientUnits="userSpaceOnUse">
<stop stop-color="#1953FF"/>
<stop offset="1" stop-color="#59ACFF"/>
</linearGradient>
<linearGradient id="paint2_linear_7001_1159" x1="33.6245" y1="13.3555" x2="33.6245" y2="18.2975" gradientUnits="userSpaceOnUse">
<stop stop-color="#1953FF"/>
<stop offset="1" stop-color="#59ACFF"/>
</linearGradient>
<linearGradient id="paint3_linear_7001_1159" x1="13.855" y1="13.3555" x2="13.855" y2="18.2975" gradientUnits="userSpaceOnUse">
<stop stop-color="#1953FF"/>
<stop offset="1" stop-color="#59ACFF"/>
</linearGradient>
<linearGradient id="paint4_linear_7001_1159" x1="23.2388" y1="33.1235" x2="23.2388" y2="35.5946" gradientUnits="userSpaceOnUse">
<stop stop-color="#1953FF"/>
<stop offset="1" stop-color="#59ACFF"/>
</linearGradient>
<linearGradient id="paint5_linear_7001_1159" x1="22.0041" y1="13.3555" x2="22.0041" y2="25.7106" gradientUnits="userSpaceOnUse">
<stop stop-color="#1953FF"/>
<stop offset="1" stop-color="#59ACFF"/>
</linearGradient>
<linearGradient id="paint6_linear_7001_1159" x1="5.94207" y1="35.5947" x2="5.94207" y2="45.4789" gradientUnits="userSpaceOnUse">
<stop stop-color="#1953FF"/>
<stop offset="1" stop-color="#59ACFF"/>
</linearGradient>
<linearGradient id="paint7_linear_7001_1159" x1="40.5368" y1="35.5947" x2="40.5368" y2="45.4789" gradientUnits="userSpaceOnUse">
<stop stop-color="#1953FF"/>
<stop offset="1" stop-color="#59ACFF"/>
</linearGradient>
<linearGradient id="paint8_linear_7001_1159" x1="52.7349" y1="40" x2="52.7349" y2="51.5087" gradientUnits="userSpaceOnUse">
<stop stop-color="#1953FF"/>
<stop offset="1" stop-color="#B3D9FF"/>
</linearGradient>
<clipPath id="clip0_7001_1159">
<rect width="13" height="12" fill="white" transform="translate(47 40)"/>
</clipPath>
</defs>
</svg>
