<svg width="39" height="9" viewBox="0 0 39 9" fill="none" xmlns="http://www.w3.org/2000/svg">
<path d="M14.5324 7.41168C14.1496 7.41168 13.8305 7.35318 13.5115 7.23617C13.1925 7.11473 12.9053 6.9481 12.6501 6.73566C12.4268 6.52322 12.2357 6.27621 12.1081 5.99463C11.9805 5.70861 11.9165 5.40103 11.9165 5.07158C11.9165 4.738 11.9805 4.43013 12.1081 4.14855C12.2357 3.86254 12.427 3.61345 12.6822 3.40101C12.9055 3.18857 13.1925 3.02399 13.5115 2.90699C13.8305 2.78555 14.1496 2.72497 14.5324 2.72497C14.7876 2.72497 15.0429 2.75955 15.2981 2.82899C15.5533 2.89842 15.8083 2.99593 15.9997 3.1215C16.223 3.24707 16.4146 3.39894 16.5741 3.57651L15.8722 4.20705C15.7127 4.00347 15.4893 3.84953 15.266 3.74553C15.0427 3.64152 14.7876 3.58952 14.5324 3.58952C14.3091 3.58952 14.0858 3.62852 13.8944 3.70652C13.703 3.78009 13.5435 3.8841 13.4159 4.01854C13.2564 4.14855 13.1608 4.30455 13.0651 4.48656C13.0013 4.66413 12.9691 4.85914 12.9691 5.07158C12.9691 5.27959 13.0013 5.47461 13.0651 5.65662C13.1608 5.83419 13.2564 5.9902 13.4159 6.12463C13.5754 6.25464 13.7347 6.35657 13.9261 6.43015C14.1176 6.50372 14.3409 6.54064 14.5642 6.54064C14.8194 6.54064 15.0429 6.49071 15.2981 6.39114C15.5214 6.29157 15.7127 6.14857 15.8722 5.96213L16.542 6.57315C16.3825 6.74659 16.1911 6.8961 15.9997 7.02168C15.7764 7.14725 15.5533 7.24475 15.2981 7.31419C15.0429 7.37919 14.7876 7.41168 14.5324 7.41168ZM18.4881 7.41168C18.1053 7.41168 17.7861 7.33368 17.499 7.17767C17.18 7.02166 16.9567 6.81159 16.7972 6.54715C16.6058 6.28271 16.5102 5.98606 16.5102 5.65662C16.5102 5.32717 16.6059 5.03051 16.7654 4.76607C16.9568 4.49749 17.1801 4.28504 17.4673 4.12904C17.7863 3.97303 18.1053 3.89503 18.4881 3.89503C18.839 3.89503 19.1579 3.97303 19.4769 4.12904C19.764 4.28504 19.9874 4.49749 20.1788 4.76607C20.3383 5.03051 20.4339 5.32717 20.4339 5.65662C20.4339 5.98606 20.3383 6.28271 20.1788 6.54715C19.9874 6.81159 19.764 7.02166 19.4769 7.17767C19.1898 7.33368 18.839 7.41168 18.4881 7.41168ZM18.4881 6.63815C18.6795 6.63815 18.8389 6.59471 18.9984 6.50814C19.1579 6.42157 19.2535 6.30457 19.3492 6.15713C19.4449 6.00556 19.5087 5.83862 19.5087 5.65662C19.5087 5.47018 19.4449 5.30352 19.3492 5.15609C19.2535 5.00865 19.1579 4.89165 18.9984 4.80507C18.8389 4.71407 18.6795 4.66856 18.4881 4.66856C18.2967 4.66856 18.1051 4.71407 17.9775 4.80507C17.818 4.89165 17.6904 5.00865 17.5947 5.15609C17.499 5.30352 17.4673 5.47018 17.4673 5.65662C17.4673 5.83862 17.499 6.00556 17.5947 6.15713C17.6904 6.30457 17.818 6.42157 17.9775 6.50814C18.1051 6.59471 18.2967 6.63815 18.4881 6.63815ZM20.7529 7.34668V3.96004H21.7099V4.33706C21.8056 4.18962 21.965 4.07703 22.1245 3.99903C22.284 3.92103 22.4755 3.88203 22.6669 3.88203C22.8583 3.88646 22.9858 3.91247 23.0815 3.96004V4.74006C23.0177 4.70963 22.922 4.68807 22.8582 4.67507C22.7625 4.65763 22.667 4.64906 22.5713 4.64906C22.4118 4.64906 22.2202 4.6925 22.0607 4.77907C21.9012 4.86564 21.8056 4.98915 21.7099 5.14959V7.34668H20.7529ZM23.3367 7.34668V2.79647L24.2937 2.64697V4.23304C24.5808 4.0206 24.8999 3.91452 25.3146 3.91452C25.6655 3.91452 25.9527 3.99254 26.2398 4.14855C26.5269 4.30456 26.7501 4.51462 26.9096 4.77907C27.0691 5.03908 27.1647 5.3316 27.1647 5.65662C27.1647 5.98163 27.0691 6.2762 26.9096 6.54064C26.7501 6.80065 26.5269 7.00866 26.2398 7.16467C25.9527 7.31624 25.6337 7.39218 25.2828 7.39218C25.0914 7.39218 24.9318 7.36825 24.7404 7.32068C24.5809 7.27311 24.4214 7.20368 24.2619 7.11267V7.34668H23.3367ZM25.1551 6.63815C25.3465 6.63815 25.5379 6.59471 25.6974 6.50814C25.8569 6.42157 25.9846 6.30457 26.0803 6.15713C26.176 6.00969 26.2077 5.84306 26.2077 5.65662C26.2077 5.47018 26.176 5.30352 26.0803 5.15609C25.9846 5.00451 25.8569 4.88751 25.6974 4.80507C25.5379 4.7185 25.3465 4.67507 25.1551 4.67507C24.9637 4.67507 24.8042 4.70314 24.6766 4.75957C24.5171 4.81158 24.3894 4.89164 24.2937 5.00007V6.31963C24.3894 6.41921 24.5171 6.49721 24.6766 6.55364C24.8042 6.61008 24.9956 6.63815 25.1551 6.63815ZM28.6641 7.40519C28.4089 7.40519 28.1855 7.36175 27.9622 7.27518C27.7708 7.18417 27.6115 7.06068 27.5158 6.90467C27.3882 6.74866 27.3242 6.56871 27.3242 6.36513C27.3242 6.04012 27.4521 5.78868 27.7392 5.6111C27.9944 5.42909 28.3451 5.3381 28.8236 5.3381C29.1426 5.3381 29.4296 5.3836 29.7167 5.4746V5.22759C29.7167 5.03258 29.653 4.88513 29.5254 4.78556C29.3978 4.68599 29.2065 4.63606 28.9513 4.63606C28.7918 4.63606 28.6321 4.65999 28.4407 4.70756C28.2812 4.751 28.0581 4.82013 27.8348 4.91557L27.4837 4.25904C27.7708 4.13761 28.0581 4.0466 28.3133 3.98603C28.5685 3.92546 28.8556 3.89503 29.1108 3.89503C29.5893 3.89503 29.972 4.00554 30.2591 4.22655C30.5143 4.44312 30.6737 4.75101 30.6737 5.14959V7.34668H29.7167V7.10616C29.5572 7.21017 29.3977 7.28611 29.2382 7.33368C29.0787 7.38125 28.8874 7.40519 28.6641 7.40519ZM28.2494 6.34564C28.2494 6.47564 28.3131 6.57966 28.4407 6.65766C28.5364 6.73123 28.7278 6.76816 28.9192 6.76816C29.0787 6.76816 29.2064 6.75073 29.3659 6.71616C29.4935 6.67716 29.621 6.62072 29.7167 6.54715V6.05313C29.5891 6.00969 29.4935 5.97719 29.3659 5.95562C29.2383 5.93405 29.0789 5.92312 28.9513 5.92312C28.728 5.92312 28.5683 5.96212 28.4407 6.04013C28.3131 6.1137 28.2494 6.21563 28.2494 6.34564ZM32.8111 7.39218C32.4602 7.39218 32.1412 7.31418 31.8541 7.15817C31.5989 7.00217 31.3757 6.79416 31.1843 6.53415C31.0248 6.2697 30.9609 5.97512 30.9609 5.65011C30.9609 5.32509 31.0248 5.03259 31.1843 4.77258C31.3757 4.50813 31.5991 4.30012 31.8862 4.14855C32.1733 3.99254 32.4923 3.91452 32.8432 3.91452C33.0027 3.91452 33.194 3.93846 33.3535 3.98603C33.5449 4.02946 33.6725 4.09447 33.832 4.18105V2.79647L34.789 2.64697V7.34668H33.832V7.06718C33.5449 7.28375 33.1939 7.39218 32.8111 7.39218ZM32.9706 6.63166C33.1301 6.63166 33.2896 6.60564 33.4491 6.55364C33.6086 6.49721 33.7363 6.41507 33.832 6.30663V4.98707C33.7363 4.8875 33.6086 4.8095 33.4491 4.75306C33.2896 4.69663 33.1301 4.66856 32.9706 4.66856C32.7473 4.66856 32.5877 4.71199 32.4282 4.79856C32.2687 4.881 32.1414 4.99802 32.0457 5.14959C31.95 5.29703 31.8862 5.46367 31.8862 5.65011C31.8862 5.83655 31.95 6.0032 32.0457 6.15064C32.1414 6.29808 32.2687 6.41508 32.4282 6.50165C32.5877 6.58822 32.7473 6.63166 32.9706 6.63166ZM37.0537 7.41168C36.6709 7.41168 36.3521 7.33368 36.065 7.17767C35.746 7.02166 35.5226 6.81159 35.3631 6.54715C35.1717 6.28271 35.108 5.98606 35.108 5.65662C35.108 5.32717 35.1718 5.03051 35.3313 4.76607C35.5227 4.49749 35.7461 4.28504 36.0332 4.12904C36.3522 3.97303 36.6709 3.89503 37.0537 3.89503C37.4046 3.89503 37.7238 3.97303 38.0428 4.12904C38.3299 4.28504 38.5533 4.49749 38.7447 4.76607C38.9042 5.03051 38.9998 5.32717 38.9998 5.65662C38.9998 5.98606 38.9042 6.28271 38.7447 6.54715C38.5533 6.81159 38.3299 7.02166 38.0428 7.17767C37.7557 7.33368 37.4046 7.41168 37.0537 7.41168ZM37.0537 6.63815C37.2451 6.63815 37.4048 6.59471 37.5643 6.50814C37.7238 6.42157 37.8194 6.30457 37.9151 6.15713C38.0108 6.00556 38.0746 5.83862 38.0746 5.65662C38.0746 5.47018 38.0108 5.30352 37.9151 5.15609C37.8194 5.00865 37.7238 4.89165 37.5643 4.80507C37.4048 4.71407 37.2451 4.66856 37.0537 4.66856C36.8623 4.66856 36.6711 4.71407 36.5435 4.80507C36.384 4.89165 36.2563 5.00865 36.1606 5.15609C36.0649 5.30352 36.0332 5.47018 36.0332 5.65662C36.0332 5.83862 36.0649 6.00556 36.1606 6.15713C36.2563 6.30457 36.384 6.42157 36.5435 6.50814C36.6711 6.59471 36.8623 6.63815 37.0537 6.63815Z" fill="#F0F0F0"/>
<mask id="mask0_7001_1120" style="mask-type:luminance" maskUnits="userSpaceOnUse" x="0" y="0" width="10" height="9">
<path d="M9.20833 0H0V9H9.20833V0Z" fill="white"/>
</mask>
<g mask="url(#mask0_7001_1120)">
<path d="M8.92806 6.05C8.92806 6.05487 8.92806 6.06002 8.92806 6.06489C8.92806 6.06641 8.92806 6.06794 8.92806 6.06977C8.80362 6.38872 8.64807 6.69306 8.46142 6.97705V6.97857C8.43031 6.98526 8.43013 6.99043 8.43013 6.99438C8.43013 6.99803 8.39914 6.99986 8.39914 6.99986H4.60375C3.20384 6.99986 2.05273 5.88064 2.05273 4.49993C2.05273 3.11922 3.20384 2 4.60375 2H8.39914C8.39914 2 8.43013 2.00183 8.43013 2.00547C8.43013 2.00943 8.43031 2.0146 8.46142 2.02129V2.02281C8.64807 2.30649 8.80362 2.61114 8.92806 2.92979C8.92806 2.93162 8.92806 2.93315 8.92806 2.93497C8.92806 2.93953 8.92806 2.94469 8.92806 2.94956C8.92806 2.96293 8.92787 2.97571 8.89677 2.98513C8.89677 2.99425 8.89689 2.99972 8.86578 2.99972H4.60375C4.19933 2.99972 3.79491 3.15753 3.51493 3.43908C3.23495 3.72033 3.07928 4.10193 3.07928 4.49963C3.07928 4.89733 3.23495 5.27891 3.51493 5.56016C3.79491 5.84172 4.19933 5.99952 4.60375 5.99952H8.86578C8.86578 5.99952 8.89677 6.00105 8.89677 6.00348C8.89677 6.00591 8.89677 6.00987 8.89677 6.01443C8.92787 6.01899 8.92806 6.02475 8.92806 6.03083C8.92806 6.03691 8.92806 6.04331 8.92806 6.05Z" fill="#F0F0F0"/>
<path d="M9.20818 4.49969C9.20818 4.6508 9.2083 4.80222 9.17719 4.95272C9.17719 4.95394 9.17719 4.95547 9.17719 4.95699C9.17719 4.96885 9.17719 4.97979 9.17719 4.98739C9.14608 4.9953 9.1459 4.99955 9.1459 4.99955H4.60407C4.47963 4.99955 4.32403 4.94696 4.2307 4.85331C4.13737 4.75936 4.10645 4.63225 4.10645 4.49969C4.10645 4.36712 4.13737 4.24002 4.2307 4.14606C4.32403 4.05242 4.47963 3.99951 4.60407 3.99951H9.1459C9.1459 3.99951 9.14608 4.00408 9.17719 4.01198C9.17719 4.01958 9.17719 4.03052 9.17719 4.04238C9.17719 4.0439 9.17719 4.04513 9.17719 4.04665C9.2083 4.19716 9.20818 4.34827 9.20818 4.49969Z" fill="#F0F0F0"/>
<path d="M7.40394 8.05014C7.40394 8.05744 7.40394 8.06443 7.40394 8.07111C7.40394 8.0778 7.40406 8.08358 7.37295 8.08845C7.37295 8.08936 7.37295 8.09058 7.37295 8.09149C6.65744 8.63058 5.7862 8.94466 4.85292 8.993C2.14642 9.13956 -0.124436 6.94611 5.29982e-07 4.28868C0.124437 1.90125 2.14648 5.4097e-06 4.60411 5.4097e-06C5.5996 -0.00151486 6.59522 0.317431 7.37295 0.908512C7.37295 0.909424 7.37295 0.910339 7.37295 0.911555C7.40406 0.918244 7.40394 0.927057 7.40394 0.937091C7.40394 0.946821 7.40394 0.957462 7.40394 0.967192C7.40394 0.976618 7.37295 0.985132 7.37295 0.990909C7.37295 0.996686 7.37277 1.00004 7.34166 1.00004H4.60411C3.63972 1.00004 2.73767 1.36885 2.08438 2.025C1.39998 2.68145 1.02654 3.57172 1.02654 4.5C1.02654 5.42828 1.39998 6.31855 2.08438 6.97501C2.73767 7.63115 3.63972 7.99996 4.60411 7.99996H7.34166C7.37277 7.99996 7.37295 8.00514 7.37295 8.01457C7.40406 8.02399 7.40394 8.03677 7.40394 8.05014Z" fill="#F0F0F0"/>
</g>
</svg>
