<svg width="41" height="40" viewBox="0 0 41 40" fill="none" xmlns="http://www.w3.org/2000/svg">
<ellipse cx="20.5" cy="20" rx="20.5" ry="20" fill="#0C163B"/>
<mask id="mask0_7001_1110" style="mask-type:luminance" maskUnits="userSpaceOnUse" x="7" y="6" width="28" height="27">
<path d="M34.4404 6.3999H7.38037V32.7999H34.4404V6.3999Z" fill="white"/>
</mask>
<g mask="url(#mask0_7001_1110)">
<path d="M33.6177 24.1466C33.6177 24.1609 33.6177 24.176 33.6177 24.1903C33.6177 24.1947 33.6177 24.1992 33.6177 24.2046C33.252 25.1402 32.7949 26.0329 32.2464 26.8659V26.8704C32.155 26.89 32.1545 26.9052 32.1545 26.9168C32.1545 26.9275 32.0634 26.9328 32.0634 26.9328H20.9101C16.7963 26.9328 13.4136 23.6498 13.4136 19.5997C13.4136 15.5496 16.7963 12.2666 20.9101 12.2666H32.0634C32.0634 12.2666 32.1545 12.272 32.1545 12.2827C32.1545 12.2943 32.155 12.3094 32.2464 12.329V12.3335C32.7949 13.1656 33.252 14.0593 33.6177 14.994C33.6177 14.9993 33.6177 15.0038 33.6177 15.0092C33.6177 15.0226 33.6177 15.0377 33.6177 15.052C33.6177 15.0912 33.6172 15.1287 33.5257 15.1563C33.5257 15.1831 33.5261 15.1991 33.4347 15.1991H20.9101C19.7217 15.1991 18.5332 15.662 17.7104 16.4879C16.8877 17.3129 16.4302 18.4323 16.4302 19.5989C16.4302 20.7654 16.8877 21.8847 17.7104 22.7097C18.5332 23.5356 19.7217 23.9985 20.9101 23.9985H33.4347C33.4347 23.9985 33.5257 24.003 33.5257 24.0101C33.5257 24.0173 33.5257 24.0289 33.5257 24.0423C33.6172 24.0556 33.6177 24.0725 33.6177 24.0904C33.6177 24.1082 33.6177 24.127 33.6177 24.1466Z" fill="#F0F0F0"/>
<path d="M34.4399 19.599C34.4399 20.0423 34.4403 20.4864 34.3489 20.9279C34.3489 20.9315 34.3489 20.936 34.3489 20.9404C34.3489 20.9752 34.3489 21.0073 34.3489 21.0296C34.2574 21.0528 34.2569 21.0653 34.2569 21.0653H20.9101C20.5444 21.0653 20.0872 20.911 19.8129 20.6363C19.5386 20.3607 19.4478 19.9879 19.4478 19.599C19.4478 19.2102 19.5386 18.8373 19.8129 18.5617C20.0872 18.287 20.5444 18.1318 20.9101 18.1318H34.2569C34.2569 18.1318 34.2574 18.1452 34.3489 18.1684C34.3489 18.1907 34.3489 18.2228 34.3489 18.2576C34.3489 18.262 34.3489 18.2656 34.3489 18.2701C34.4403 18.7116 34.4399 19.1549 34.4399 19.599Z" fill="#F0F0F0"/>
<path d="M29.1381 30.0137C29.1381 30.0351 29.1381 30.0556 29.1381 30.0752C29.1381 30.0948 29.1384 30.1117 29.047 30.126C29.047 30.1287 29.047 30.1323 29.047 30.1349C26.9444 31.7163 24.3841 32.6376 21.6416 32.7794C13.6881 33.2093 7.01489 26.7752 7.38056 18.98C7.74624 11.9769 13.6883 6.39992 20.9104 6.39992C23.8358 6.39546 26.7616 7.33103 29.047 9.06487C29.047 9.06755 29.047 9.07023 29.047 9.0738C29.1384 9.09342 29.1381 9.11927 29.1381 9.1487C29.1381 9.17724 29.1381 9.20846 29.1381 9.237C29.1381 9.26465 29.047 9.28962 29.047 9.30657C29.047 9.32352 29.0465 9.33335 28.9551 9.33335H20.9104C18.0764 9.33335 15.4256 10.4152 13.5058 12.3399C11.4946 14.2655 10.3972 16.877 10.3972 19.5999C10.3972 22.3229 11.4946 24.9343 13.5058 26.8599C15.4256 28.7846 18.0764 29.8665 20.9104 29.8665H28.9551C29.0465 29.8665 29.047 29.8817 29.047 29.9093C29.1384 29.937 29.1381 29.9744 29.1381 30.0137Z" fill="#F0F0F0"/>
</g>
</svg>
