<svg width="28" height="27" viewBox="0 0 28 27" fill="none" xmlns="http://www.w3.org/2000/svg">
<mask id="mask0_7001_1112" style="mask-type:luminance" maskUnits="userSpaceOnUse" x="0" y="0" width="28" height="27">
<path d="M27.4404 0.399902H0.380371V26.7999H27.4404V0.399902Z" fill="white"/>
</mask>
<g mask="url(#mask0_7001_1112)">
<path d="M26.6177 18.1466C26.6177 18.1609 26.6177 18.176 26.6177 18.1903C26.6177 18.1947 26.6177 18.1992 26.6177 18.2046C26.252 19.1402 25.7949 20.0329 25.2464 20.8659V20.8704C25.155 20.89 25.1545 20.9052 25.1545 20.9168C25.1545 20.9275 25.0634 20.9328 25.0634 20.9328H13.9101C9.79625 20.9328 6.41357 17.6498 6.41357 13.5997C6.41357 9.54964 9.79625 6.2666 13.9101 6.2666H25.0634C25.0634 6.2666 25.1545 6.27196 25.1545 6.28266C25.1545 6.29426 25.155 6.30942 25.2464 6.32904V6.3335C25.7949 7.16564 26.252 8.05929 26.6177 8.99399C26.6177 8.99934 26.6177 9.00383 26.6177 9.00918C26.6177 9.02256 26.6177 9.0377 26.6177 9.05197C26.6177 9.09121 26.6172 9.12867 26.5257 9.15632C26.5257 9.18308 26.5261 9.19911 26.4347 9.19911H13.9101C12.7217 9.19911 11.5332 9.66201 10.7104 10.4879C9.88767 11.3129 9.43022 12.4323 9.43022 13.5989C9.43022 14.7654 9.88767 15.8847 10.7104 16.7097C11.5332 17.5356 12.7217 17.9985 13.9101 17.9985H26.4347C26.4347 17.9985 26.5257 18.003 26.5257 18.0101C26.5257 18.0173 26.5257 18.0289 26.5257 18.0423C26.6172 18.0556 26.6177 18.0725 26.6177 18.0904C26.6177 18.1082 26.6177 18.127 26.6177 18.1466Z" fill="#F0F0F0"/>
<path d="M27.4399 13.599C27.4399 14.0423 27.4403 14.4864 27.3489 14.9279C27.3489 14.9315 27.3489 14.936 27.3489 14.9404C27.3489 14.9752 27.3489 15.0073 27.3489 15.0296C27.2574 15.0528 27.2569 15.0653 27.2569 15.0653H13.9101C13.5444 15.0653 13.0872 14.911 12.8129 14.6363C12.5386 14.3607 12.4478 13.9879 12.4478 13.599C12.4478 13.2102 12.5386 12.8373 12.8129 12.5617C13.0872 12.287 13.5444 12.1318 13.9101 12.1318H27.2569C27.2569 12.1318 27.2574 12.1452 27.3489 12.1684C27.3489 12.1907 27.3489 12.2228 27.3489 12.2576C27.3489 12.262 27.3489 12.2656 27.3489 12.2701C27.4403 12.7116 27.4399 13.1549 27.4399 13.599Z" fill="#F0F0F0"/>
<path d="M22.1381 24.0137C22.1381 24.0351 22.1381 24.0556 22.1381 24.0752C22.1381 24.0948 22.1384 24.1117 22.047 24.126C22.047 24.1287 22.047 24.1323 22.047 24.1349C19.9444 25.7163 17.3841 26.6376 14.6416 26.7794C6.68811 27.2093 0.0148856 20.7752 0.380561 12.98C0.746237 5.9769 6.68829 0.399918 13.9104 0.399918C16.8358 0.395459 19.7616 1.33103 22.047 3.06487C22.047 3.06755 22.047 3.07023 22.047 3.0738C22.1384 3.09342 22.1381 3.11927 22.1381 3.1487C22.1381 3.17724 22.1381 3.20846 22.1381 3.237C22.1381 3.26465 22.047 3.28962 22.047 3.30657C22.047 3.32352 22.0465 3.33335 21.9551 3.33335H13.9104C11.0764 3.33335 8.42561 4.41519 6.50581 6.33989C4.49459 8.26549 3.39721 10.877 3.39721 13.5999C3.39721 16.3229 4.49459 18.9343 6.50581 20.8599C8.42561 22.7846 11.0764 23.8665 13.9104 23.8665H21.9551C22.0465 23.8665 22.047 23.8817 22.047 23.9093C22.1384 23.937 22.1381 23.9744 22.1381 24.0137Z" fill="#F0F0F0"/>
</g>
</svg>
