<svg xmlns="http://www.w3.org/2000/svg" width="100" height="100" viewBox="0 0 44 42" fill="none">
    <path d="M0 36.5936V31.73C0 30.7457 0.236428 29.841 0.709284 29.0159C1.18214 28.1908 1.81036 27.5611 2.59395 27.1269C4.26922 26.2294 5.9715 25.5563 7.7008 25.1076C9.4301 24.6588 11.1864 24.4345 12.9698 24.4345C13.5102 24.4345 14.0506 24.4562 14.591 24.4996C15.1314 24.543 15.6718 24.6082 16.2122 24.695C16.1041 26.3742 16.3878 27.9592 17.0634 29.4501C17.7389 30.9411 18.7251 32.1642 20.0221 33.1196V36.5936H0ZM25.9395 41.8047L23.5077 39.1992V31.122C22.3188 30.7457 21.3461 30.0291 20.5895 28.9724C19.8329 27.9158 19.4547 26.6926 19.4547 25.303C19.4547 23.6239 20.0086 22.1908 21.1164 21.0039C22.2242 19.8169 23.5617 19.2234 25.1289 19.2234C26.6961 19.2234 28.0336 19.8169 29.1415 21.0039C30.2493 22.1908 30.8032 23.6239 30.8032 25.303C30.8032 26.6058 30.4587 27.7638 29.7697 28.777C29.0807 29.7903 28.2092 30.5141 27.1555 30.9483L29.182 33.1196L26.7501 35.7251L29.182 38.3307L25.9395 41.8047ZM12.9698 22.6975C11.1864 22.6975 9.65978 22.0171 8.38982 20.6565C7.11986 19.2958 6.48488 17.6601 6.48488 15.7494C6.48488 13.8386 7.11986 12.2029 8.38982 10.8423C9.65978 9.4816 11.1864 8.80127 12.9698 8.80127C14.7531 8.80127 16.2798 9.4816 17.5497 10.8423C18.8197 12.2029 19.4547 13.8386 19.4547 15.7494C19.4547 17.6601 18.8197 19.2958 17.5497 20.6565C16.2798 22.0171 14.7531 22.6975 12.9698 22.6975ZM25.1289 26.1715C25.5883 26.1715 25.9733 26.005 26.284 25.6721C26.5948 25.3392 26.7501 24.9266 26.7501 24.4345C26.7501 23.9423 26.5948 23.5298 26.284 23.1968C25.9733 22.8639 25.5883 22.6975 25.1289 22.6975C24.6696 22.6975 24.2845 22.8639 23.9738 23.1968C23.6631 23.5298 23.5077 23.9423 23.5077 24.4345C23.5077 24.9266 23.6631 25.3392 23.9738 25.6721C24.2845 26.005 24.6696 26.1715 25.1289 26.1715Z" fill="black" />
    <path d="M34.5753 0C29.7348 0 25.7744 3.96041 25.7744 8.80091C25.7744 13.6414 29.7348 17.6018 34.5753 17.6018C39.4158 17.6018 43.3762 13.6414 43.3762 8.80091C43.3762 3.96041 39.4158 0 34.5753 0ZM38.2717 7.30476L34.0473 11.5292C33.6952 11.8812 33.1672 11.8812 32.8151 11.5292L30.8789 9.593C30.5269 9.24096 30.5269 8.71291 30.8789 8.36087C31.231 8.00883 31.759 8.00883 32.1111 8.36087L33.4312 9.68101L37.0396 6.07263C37.3916 5.72059 37.9197 5.72059 38.2717 6.07263C38.6238 6.42467 38.6238 6.95272 38.2717 7.30476Z" fill="#1953FF" />
</svg>