<svg width="65" height="65" viewBox="0 0 65 65" fill="none" xmlns="http://www.w3.org/2000/svg">
<path d="M10 47.5936V42.73C10 41.7457 10.2364 40.841 10.7093 40.0159C11.1821 39.1908 11.8104 38.5611 12.594 38.1269C14.2692 37.2294 15.9715 36.5563 17.7008 36.1076C19.4301 35.6588 21.1864 35.4345 22.9698 35.4345C23.5102 35.4345 24.0506 35.4562 24.591 35.4996C25.1314 35.543 25.6718 35.6082 26.2122 35.695C26.1041 37.3742 26.3878 38.9592 27.0634 40.4501C27.7389 41.9411 28.7251 43.1642 30.0221 44.1196V47.5936H10ZM35.9395 52.8047L33.5077 50.1992V42.122C32.3188 41.7457 31.3461 41.0291 30.5895 39.9724C29.8329 38.9158 29.4547 37.6926 29.4547 36.303C29.4547 34.6239 30.0086 33.1908 31.1164 32.0039C32.2242 30.8169 33.5617 30.2234 35.1289 30.2234C36.6961 30.2234 38.0336 30.8169 39.1415 32.0039C40.2493 33.1908 40.8032 34.6239 40.8032 36.303C40.8032 37.6058 40.4587 38.7638 39.7697 39.777C39.0807 40.7903 38.2092 41.5141 37.1555 41.9483L39.182 44.1196L36.7501 46.7251L39.182 49.3307L35.9395 52.8047ZM22.9698 33.6975C21.1864 33.6975 19.6598 33.0171 18.3898 31.6565C17.1199 30.2958 16.4849 28.6601 16.4849 26.7494C16.4849 24.8386 17.1199 23.2029 18.3898 21.8423C19.6598 20.4816 21.1864 19.8013 22.9698 19.8013C24.7531 19.8013 26.2798 20.4816 27.5497 21.8423C28.8197 23.2029 29.4547 24.8386 29.4547 26.7494C29.4547 28.6601 28.8197 30.2958 27.5497 31.6565C26.2798 33.0171 24.7531 33.6975 22.9698 33.6975ZM35.1289 37.1715C35.5883 37.1715 35.9733 37.005 36.284 36.6721C36.5948 36.3392 36.7501 35.9266 36.7501 35.4345C36.7501 34.9423 36.5948 34.5298 36.284 34.1968C35.9733 33.8639 35.5883 33.6975 35.1289 33.6975C34.6696 33.6975 34.2845 33.8639 33.9738 34.1968C33.6631 34.5298 33.5077 34.9423 33.5077 35.4345C33.5077 35.9266 33.6631 36.3392 33.9738 36.6721C34.2845 37.005 34.6696 37.1715 35.1289 37.1715Z" fill="white"/>
<path d="M44.5753 11C39.7348 11 35.7744 14.9604 35.7744 19.8009C35.7744 24.6414 39.7348 28.6018 44.5753 28.6018C49.4158 28.6018 53.3762 24.6414 53.3762 19.8009C53.3762 14.9604 49.4158 11 44.5753 11ZM48.2717 18.3048L44.0473 22.5292C43.6952 22.8812 43.1672 22.8812 42.8151 22.5292L40.8789 20.593C40.5269 20.241 40.5269 19.7129 40.8789 19.3609C41.231 19.0088 41.759 19.0088 42.1111 19.3609L43.4312 20.681L47.0396 17.0726C47.3916 16.7206 47.9197 16.7206 48.2717 17.0726C48.6238 17.4247 48.6238 17.9527 48.2717 18.3048Z" fill="#1953FF"/>
<circle cx="32.5" cy="32.5" r="32" stroke="url(#paint0_linear_7001_1129)"/>
<defs>
<linearGradient id="paint0_linear_7001_1129" x1="32.5" y1="0" x2="32.5" y2="65" gradientUnits="userSpaceOnUse">
<stop stop-color="#1953FF"/>
<stop offset="1" stop-opacity="0"/>
</linearGradient>
</defs>
</svg>
